<svg width="62" height="4" viewBox="0 0 62 4" fill="none" xmlns="http://www.w3.org/2000/svg">
<path d="M0.914815 2C0.914815 2.87547 1.62453 3.58519 2.5 3.58519C3.37547 3.58519 4.08519 2.87547 4.08519 2C4.08519 1.12453 3.37547 0.414815 2.5 0.414815C1.62453 0.414815 0.914815 1.12453 0.914815 2ZM57.9148 2C57.9148 2.87547 58.6245 3.58519 59.5 3.58519C60.3755 3.58519 61.0852 2.87547 61.0852 2C61.0852 1.12453 60.3755 0.414815 59.5 0.414815C58.6245 0.414815 57.9148 1.12453 57.9148 2ZM2.5 2.29722H59.5V1.70278H2.5V2.29722Z" fill="#F0F0F2"/>
</svg>
