<?xml version="1.0" encoding="UTF-8"?>
<svg id="Layer_1" data-name="Layer 1" xmlns="http://www.w3.org/2000/svg" version="1.1" viewBox="0 0 291.45 291.48">
  <defs>
    <style>
      .cls-1 {
        fill: #000;
      }

      .cls-1, .cls-2 {
        stroke-width: 0px;
      }

      .cls-2 {
        fill: #fff;
      }
    </style>
  </defs>
  <path class="cls-1" d="M285.04,180.49c-19.18,76.94-97.12,123.77-174.07,104.58C34.05,265.89-12.78,187.95,6.41,111.01,25.59,34.06,103.52-12.77,180.45,6.41c76.95,19.18,123.77,97.13,104.59,174.08Z"/>
  <g>
    <path class="cls-2" d="M40.42,160.84l.55,2.92-19.11,3.59,1.3,6.96-1.75.33-1.85-9.87,20.86-3.92Z"/>
    <path class="cls-2" d="M38.62,178.75l.91,2.83-14.68,4.75-.91-2.83,14.68-4.75ZM44.14,176.97l.91,2.83-2.23.72-.91-2.83,2.23-.72Z"/>
    <path class="cls-2" d="M49.4,203.34c.34.63.54,1.28.6,1.94.06.66,0,1.29-.18,1.89s-.49,1.16-.91,1.67c-.42.51-.95.94-1.58,1.28l-9.19,4.9-1.4-2.62,9.69-5.16c.7-.37,1.15-.89,1.35-1.56.2-.66.12-1.35-.25-2.04l-1.53-2.87-12.04,6.41-1.4-2.62,12.04-6.41-2.78-5.22-12.04,6.42-1.4-2.62,13.61-7.25,7.4,13.89Z"/>
    <path class="cls-2" d="M56.97,214.25l1.84,2.33-12.09,9.58-1.85-2.33,12.09-9.58ZM61.51,210.65l1.85,2.33-1.84,1.46-1.85-2.33,1.84-1.46Z"/>
    <path class="cls-2" d="M57.5,237.86c-.51-.5-.9-1.06-1.15-1.67-.26-.61-.39-1.23-.39-1.86,0-.63.12-1.25.37-1.86.25-.61.63-1.18,1.13-1.69l6.07-6.14-1.69-1.67,1.25-1.27,1.69,1.67,2.41-2.44,2.11,2.09-2.41,2.44,3.36,3.32-1.25,1.27-3.36-3.32-6.48,6.56c-.56.56-.83,1.19-.83,1.87,0,.68.29,1.3.85,1.86l1.49,1.47-1.25,1.27-1.91-1.89Z"/>
    <path class="cls-2" d="M70.8,248.94c-.58-.42-1.05-.91-1.4-1.47-.35-.56-.58-1.15-.68-1.77-.11-.62-.08-1.25.07-1.9.15-.65.43-1.26.85-1.85l3.16-4.42c.42-.58.9-1.05,1.46-1.39.56-.34,1.14-.57,1.76-.67.62-.1,1.25-.08,1.9.07s1.26.43,1.85.85l1.5,1.07c.58.42,1.05.91,1.4,1.47.35.56.58,1.16.68,1.77.1.62.08,1.25-.07,1.9s-.43,1.26-.85,1.85l-2.04,2.86-7.23-5.16-1.45,2.03c-.46.65-.64,1.3-.52,1.97.11.67.49,1.24,1.13,1.7l4.12,2.95-1.04,1.45-4.61-3.29ZM80.51,242.03c.38-.54.51-1.14.38-1.8-.13-.66-.52-1.22-1.16-1.68l-.51-.36c-.64-.46-1.3-.63-1.98-.51-.68.12-1.25.5-1.71,1.15l-1.33,1.87,4.81,3.44,1.5-2.09Z"/>
    <path class="cls-2" d="M90.41,260.65c-.65-.31-1.19-.7-1.64-1.2-.45-.49-.77-1.03-.98-1.62-.21-.59-.3-1.22-.27-1.88.03-.66.2-1.32.51-1.97l2.32-4.91c.31-.65.71-1.2,1.2-1.64.49-.45,1.03-.77,1.63-.99.59-.21,1.21-.3,1.86-.26.65.04,1.3.21,1.95.51l3.53,1.67,2.48-5.24,2.69,1.27-9.07,19.19-6.19-2.93ZM94.69,260.69l5.07-10.72-2.94-1.39c-.72-.34-1.4-.39-2.05-.16-.66.23-1.15.71-1.49,1.43l-2.81,5.94c-.34.72-.39,1.4-.15,2.04.24.64.72,1.14,1.43,1.48l2.94,1.39Z"/>
    <path class="cls-2" d="M123.04,249.74l9.9,1.69-.3,1.76-6.97-1.19-1.34,7.81,6.36,1.09-.3,1.76-6.36-1.08-1.34,7.84,6.97,1.19-.3,1.76-9.91-1.69,3.57-20.93Z"/>
    <path class="cls-2" d="M145.31,273.32c-.72,0-1.38-.12-2-.37-.62-.25-1.14-.6-1.59-1.04-.45-.44-.8-.97-1.05-1.58-.26-.61-.39-1.28-.39-1.99l-.02-5.43c0-.72.12-1.38.37-2,.25-.61.6-1.14,1.04-1.59.44-.45.96-.79,1.57-1.04.6-.25,1.26-.37,1.98-.37h3.91s-.02-5.82-.02-5.82h2.97s.08,21.22.08,21.22l-6.85.02ZM149.18,271.52l-.04-11.86h-3.26c-.79.01-1.43.26-1.92.76-.49.49-.73,1.13-.73,1.93l.02,6.57c0,.79.25,1.43.74,1.91.49.48,1.14.72,1.93.72h3.26Z"/>
    <path class="cls-2" d="M159.59,251.19l2.94-.43.34,2.32-2.94.43-.34-2.32ZM160.43,256.93l2.94-.43,2.24,15.26-2.94.43-2.24-15.26Z"/>
    <path class="cls-2" d="M181.11,268.3c-.69.19-1.37.24-2.03.16s-1.26-.28-1.8-.59c-.54-.31-1.02-.73-1.43-1.25-.41-.52-.7-1.13-.89-1.82l-2.27-8.33-2.29.62-.47-1.72,2.29-.62-.9-3.3,2.87-.78.9,3.31,4.56-1.24.47,1.72-4.56,1.24,2.42,8.9c.21.76.61,1.32,1.2,1.65.59.34,1.27.4,2.03.19l2.02-.55.47,1.72-2.6.71Z"/>
    <path class="cls-2" d="M184.27,244.85l2.75-1.11.88,2.18-2.76,1.11-.88-2.18ZM186.44,250.23l2.76-1.11,5.77,14.3-2.76,1.11-5.77-14.3Z"/>
    <path class="cls-2" d="M208.9,256.58c-.62.36-1.26.58-1.92.67-.66.09-1.29.05-1.9-.11-.61-.16-1.17-.44-1.7-.85s-.97-.91-1.33-1.54l-2.72-4.7c-.36-.62-.58-1.26-.66-1.91-.08-.65-.04-1.28.12-1.89.16-.6.45-1.17.85-1.7s.91-.97,1.54-1.33l1.59-.92c.62-.36,1.26-.58,1.92-.67s1.29-.05,1.9.11c.61.16,1.17.44,1.69.83.52.4.96.91,1.32,1.52l2.72,4.71c.36.62.58,1.26.67,1.92.09.66.05,1.29-.11,1.9s-.45,1.17-.85,1.7-.91.97-1.54,1.33l-1.59.92ZM206.76,245.13c-.4-.69-.93-1.12-1.59-1.31-.66-.18-1.34-.08-2.02.32l-.57.32c-.69.4-1.11.93-1.29,1.59-.17.66-.06,1.34.34,2.03l3.27,5.66c.41.7.94,1.14,1.59,1.32.66.18,1.33.07,2.02-.33l.56-.32c.69-.4,1.12-.92,1.29-1.58.18-.66.06-1.34-.35-2.04l-3.27-5.66Z"/>
    <path class="cls-2" d="M219.12,230.56c.55-.47,1.14-.8,1.77-1,.63-.2,1.26-.28,1.89-.23.62.05,1.23.23,1.82.53.59.3,1.12.73,1.58,1.27l6.75,7.93-2.26,1.93-7.3-8.58c-.43-.5-.98-.77-1.65-.81-.67-.04-1.31.21-1.92.72l-2.48,2.11,8.85,10.39-2.26,1.93-10-11.74,5.21-4.44Z"/>
  </g>
  <path class="cls-2" d="M209.05,125.28c2.86-19.11-11.69-29.39-31.59-36.24l6.45-25.89-15.76-3.93-6.28,25.21c-4.14-1.03-8.4-2.01-12.63-2.97l6.33-25.37-15.75-3.93-6.46,25.88c-3.43-.78-6.8-1.55-10.06-2.37l.02-.08-21.73-5.43-4.19,16.83s11.69,2.68,11.45,2.85c6.38,1.59,7.54,5.82,7.34,9.17l-7.35,29.49c.44.11,1.01.27,1.64.53-.53-.13-1.09-.27-1.67-.41l-10.31,41.32c-.78,1.94-2.76,4.85-7.22,3.74.16.23-11.45-2.86-11.45-2.86l-7.82,18.04,20.51,5.11c3.82.96,7.55,1.96,11.23,2.9l-6.52,26.19,15.74,3.93,6.46-25.91c4.3,1.17,8.47,2.24,12.56,3.26l-6.44,25.79,15.76,3.93,6.52-26.14c26.87,5.09,47.08,3.03,55.58-21.27,6.85-19.57-.34-30.86-14.48-38.22,10.3-2.37,18.05-9.15,20.12-23.14h0ZM173.04,175.77c-4.87,19.57-37.82,8.99-48.5,6.34l8.65-34.69c10.68,2.67,44.94,7.94,39.85,28.35ZM177.92,125c-4.44,17.8-31.87,8.76-40.76,6.54l7.85-31.46c8.9,2.22,37.55,6.36,32.92,24.92Z"/>
</svg>