<svg width="44" height="44" viewBox="0 0 44 44" fill="none" xmlns="http://www.w3.org/2000/svg">
<g clip-path="url(#clip0_5623_81)">
<path d="M0 17.6C0 9.30329 0 5.15492 2.57746 2.57746C5.15492 0 9.30329 0 17.6 0H26.4C34.6967 0 38.8451 0 41.4226 2.57746C44 5.15492 44 9.30329 44 17.6V26.4C44 34.6967 44 38.8451 41.4226 41.4226C38.8451 44 34.6967 44 26.4 44H17.6C9.30329 44 5.15492 44 2.57746 41.4226C0 38.8451 0 34.6967 0 26.4V17.6Z" fill="#1F57E9"/>
<path d="M35.2001 22C35.2001 14.7099 29.2902 8.80005 22 8.80005C14.7099 8.80005 8.80005 14.7099 8.80005 22C8.80005 29.2902 14.7099 35.2001 22 35.2001C29.2902 35.2001 35.2001 29.2902 35.2001 22Z" fill="white"/>
<path d="M25.6666 17.6001H18.3333C17.9283 17.6001 17.6 17.9284 17.6 18.3334V25.6668C17.6 26.0718 17.9283 26.4001 18.3333 26.4001H25.6666C26.0717 26.4001 26.4 26.0718 26.4 25.6668V18.3334C26.4 17.9284 26.0717 17.6001 25.6666 17.6001Z" fill="#2058EA"/>
</g>
<defs>
<clipPath id="clip0_5623_81">
<rect width="44" height="44" fill="white"/>
</clipPath>
</defs>
</svg>
