<svg width="36" height="36" viewBox="0 0 36 36" fill="none" xmlns="http://www.w3.org/2000/svg">
<g clip-path="url(#clip0_5475_2073)">
<path d="M1.4182 29.1818C1.09092 29.1818 0.872742 28.9636 0.872742 28.6364V3.87273C0.872742 2.01818 2.40001 0.545456 4.25456 0.545456H24.6C26.4546 0.545456 27.9273 2.01818 27.9273 3.87273V18.6C27.9273 18.9273 27.7091 19.1455 27.3818 19.1455C27.0546 19.1455 26.8364 18.9273 26.8364 18.6V3.87273C26.8364 2.61818 25.8546 1.63637 24.6 1.63637H4.25456C3.00001 1.63637 1.96365 2.61818 1.96365 3.87273V28.6364C1.96365 28.9636 1.74547 29.1818 1.4182 29.1818Z" fill="#E0BC85"/>
<path d="M24.6 35.4545H7.6909C7.36363 35.4545 7.14545 35.2364 7.14545 34.9091C7.14545 34.5818 7.36363 34.3636 7.6909 34.3636H24.5454C25.8 34.3636 26.7818 33.3818 26.7818 32.1273C26.7818 31.8 27 31.5818 27.3273 31.5818C27.6545 31.5818 27.8727 31.8 27.8727 32.1273C27.9273 33.9818 26.4 35.4545 24.6 35.4545Z" fill="#E0BC85"/>
<path d="M7.69094 35.4545C7.5273 35.4545 7.41821 35.4 7.30912 35.2909L1.03639 29.0182C0.872754 28.8545 0.818209 28.6364 0.9273 28.4182C1.03639 28.2 1.20003 28.0909 1.41821 28.0909H5.78185C7.14548 28.0909 8.18184 29.1818 8.18184 30.4909V34.8545C8.18184 35.0727 8.07275 35.2909 7.85457 35.3455C7.85457 35.4546 7.80003 35.4545 7.69094 35.4545ZM2.78185 29.1818L7.20003 33.6V30.5455C7.20003 29.8364 6.60003 29.2364 5.89094 29.2364H2.78185V29.1818Z" fill="#E0BC85"/>
<path d="M6.00004 12.1091C5.89095 12.1091 5.72731 12.0545 5.61822 11.9455L3.98186 10.5273C3.76367 10.3091 3.76367 9.98181 3.92731 9.76363L9.00004 3.70909C9.10913 3.6 9.21822 3.54545 9.38186 3.49091C9.54549 3.49091 9.65458 3.54545 9.76367 3.65454L11.4 5.07272C11.6182 5.29091 11.6182 5.61818 11.4546 5.83636L6.4364 11.8909C6.32731 12.0545 6.16367 12.1091 6.00004 12.1091ZM5.12731 10.0909L5.94549 10.8L10.3091 5.56363L9.49095 4.85454L5.12731 10.0909Z" fill="#E0BC85"/>
<path d="M15.1637 8.01818C15.1091 8.01818 15.0546 8.01818 15 8.01818L10.2546 6.81818C9.98183 6.76363 9.76365 6.43636 9.87274 6.16363C9.92729 5.89091 10.2546 5.67273 10.5273 5.78182L15.2727 6.98182C15.5455 7.03636 15.7637 7.36364 15.6546 7.63636C15.6 7.85454 15.3818 8.01818 15.1637 8.01818Z" fill="#E0BC85"/>
<path d="M19.5273 13.9636C19.3637 13.9636 19.2 13.9091 19.0909 13.8L15.4909 9.70908C15.2728 9.4909 15.3273 9.16363 15.5455 8.94544C15.7637 8.72726 16.0909 8.78181 16.3091 8.99999L19.9091 13.0909C20.1273 13.3091 20.0728 13.6364 19.8546 13.8545C19.7455 13.9091 19.6364 13.9636 19.5273 13.9636Z" fill="#E0BC85"/>
<path d="M20.0728 17.1818C20.0182 17.1818 20.0182 17.1818 19.9637 17.1818C19.5273 17.1273 19.1455 16.9636 18.8728 16.6364L17.1819 14.6182C16.9637 14.4 17.0182 14.0182 17.2364 13.8545C17.4546 13.6364 17.8364 13.6909 18 13.9091L19.691 15.9273C19.7455 16.0364 19.9091 16.0909 20.0182 16.0909C20.1273 16.0909 20.2364 16.0364 20.3455 15.9818C20.5637 15.8182 20.5637 15.5454 20.4 15.3273L18.7091 13.3091C18.491 13.0909 18.5455 12.7091 18.7637 12.5454C18.9819 12.3273 19.3637 12.3818 19.5273 12.6L21.2182 14.6182C21.7637 15.2727 21.7091 16.2545 21.0546 16.8C20.8364 17.0182 20.4546 17.1818 20.0728 17.1818Z" fill="#E0BC85"/>
<path d="M18.2728 18.1636C18.2182 18.1636 18.2182 18.1636 18.1637 18.1636C17.7273 18.1636 17.3455 17.9454 17.0728 17.6182L15.6546 15.9818C15.4364 15.7636 15.4909 15.3818 15.7091 15.2182C15.9273 15 16.3091 15.0545 16.4728 15.2727L17.8909 16.9091C18.0546 17.0727 18.3273 17.1273 18.5455 16.9636C18.7637 16.8 18.7637 16.4727 18.6 16.3091L17.1819 14.6727C16.9637 14.4545 17.0182 14.0727 17.2364 13.9091C17.4546 13.6909 17.8364 13.7454 18 13.9636L19.4182 15.6C19.6909 15.9273 19.8 16.3091 19.8 16.7454C19.8 17.1818 19.5819 17.5636 19.2546 17.8364C18.9819 18 18.6 18.1636 18.2728 18.1636Z" fill="#E0BC85"/>
<path d="M16.6364 19.4182C16.2 19.4182 15.7637 19.2545 15.491 18.8727L14.1819 17.2909C13.9637 17.0727 14.0182 16.6909 14.2364 16.5273C14.4546 16.3091 14.8364 16.3636 15 16.5818L16.3091 18.1091C16.3637 18.2182 16.4728 18.2727 16.6364 18.2727C16.7455 18.2727 16.8546 18.2182 16.9637 18.1636C17.0728 18.0545 17.1273 17.9454 17.1273 17.8364C17.1273 17.7273 17.0728 17.6182 17.0182 17.5091L15.7091 15.9273C15.491 15.7091 15.5455 15.3273 15.7637 15.1636C15.9819 14.9454 16.3637 15 16.5273 15.2182L17.8364 16.7454C18.1091 17.0727 18.2182 17.4545 18.2182 17.8909C18.2182 18.3273 18 18.7091 17.6728 18.9818C17.3455 19.2545 17.0182 19.4182 16.6364 19.4182Z" fill="#E0BC85"/>
<path d="M14.8364 20.5091C14.7818 20.5091 14.7818 20.5091 14.7273 20.5091C14.2909 20.5091 13.9091 20.2909 13.6364 19.9636L12.9273 19.1455C12.7091 18.9273 12.7636 18.5455 12.9818 18.3818C13.2 18.1636 13.5818 18.2182 13.7455 18.4364L14.4 19.2545C14.4546 19.3636 14.5636 19.4182 14.7273 19.4182C14.8364 19.4182 14.9455 19.3636 15.0546 19.3091C15.1636 19.2 15.2182 19.0909 15.2182 18.9818C15.2182 18.8727 15.1636 18.7636 15.1091 18.6545L14.0182 17.3455C13.8546 17.1273 13.8546 16.7455 14.0727 16.5818C14.2909 16.4182 14.6727 16.4182 14.8364 16.6364L15.9273 17.9455C16.4727 18.6 16.4182 19.5818 15.7636 20.1273C15.6 20.3455 15.2182 20.5091 14.8364 20.5091Z" fill="#E0BC85"/>
<path d="M7.96367 15.8727C7.5273 15.8727 7.09094 15.7091 6.76367 15.3273C6.49094 15 6.3273 14.6182 6.38185 14.1818C6.38185 13.7455 6.60003 13.3636 6.9273 13.0909L8.07276 12.1091C8.40003 11.8364 8.78185 11.6727 9.21821 11.7273C9.65458 11.7273 10.0364 11.9455 10.3091 12.2727C10.5819 12.6 10.7455 12.9818 10.6909 13.4182C10.6909 13.8546 10.4728 14.2364 10.1455 14.5091L9.00003 15.4909C8.7273 15.7636 8.34549 15.8727 7.96367 15.8727ZM9.10912 12.8182C9.00003 12.8182 8.89094 12.8727 8.78185 12.9273L7.6364 13.9636C7.5273 14.0727 7.47276 14.1818 7.47276 14.2909C7.47276 14.4 7.5273 14.5636 7.58185 14.6182C7.74549 14.8364 8.07276 14.8364 8.2364 14.6727L9.38185 13.6909C9.49094 13.5818 9.54549 13.4727 9.54549 13.3636C9.54549 13.2546 9.49094 13.0909 9.4364 13.0364C9.38185 12.8727 9.27276 12.8182 9.10912 12.8182Z" fill="#E0BC85"/>
<path d="M9.32732 17.4C9.27277 17.4 9.27277 17.4 9.21822 17.4C8.78186 17.4 8.40004 17.1818 8.12732 16.8545C7.85459 16.5273 7.69095 16.1455 7.7455 15.7091C7.7455 15.2727 7.96368 14.8909 8.29095 14.6182L9.92732 13.2C10.5819 12.6 11.5637 12.7091 12.1637 13.3636C12.4364 13.6909 12.6 14.0727 12.5455 14.5091C12.5455 14.9455 12.3273 15.3273 12 15.6L10.3637 17.0182C10.091 17.2909 9.70913 17.4 9.32732 17.4ZM10.9637 13.9636C10.8546 13.9636 10.7455 14.0182 10.6364 14.0727L9.00004 15.4909C8.89095 15.6 8.83641 15.7091 8.83641 15.8182C8.83641 15.9273 8.89095 16.0909 8.9455 16.1455C9.00004 16.2 9.16368 16.3091 9.27277 16.3091C9.38186 16.3091 9.5455 16.2545 9.60004 16.2L11.2364 14.7818C11.3455 14.6727 11.4 14.5636 11.4 14.4545C11.4 14.3455 11.3455 14.1818 11.291 14.1273C11.1819 14.0182 11.0728 13.9636 10.9637 13.9636Z" fill="#E0BC85"/>
<path d="M10.691 18.9818C10.6364 18.9818 10.6364 18.9818 10.5819 18.9818C10.1455 18.9818 9.76369 18.7636 9.49096 18.4364C9.21824 18.1091 9.0546 17.7273 9.10914 17.2909C9.10914 16.8545 9.32733 16.4727 9.6546 16.2L10.8001 15.2182C11.1273 14.9455 11.5091 14.7818 11.9455 14.8364C12.3819 14.8364 12.7637 15.0545 13.0364 15.3818C13.5819 16.0364 13.5273 17.0182 12.8728 17.6182L11.7273 18.6C11.4546 18.8182 11.0728 18.9818 10.691 18.9818ZM11.8364 15.9273C11.7273 15.9273 11.6182 15.9818 11.5091 16.0364L10.3637 17.0182C10.2546 17.1273 10.2001 17.2364 10.2001 17.3455C10.2001 17.4545 10.2546 17.6182 10.3091 17.6727C10.3637 17.7273 10.5273 17.8364 10.6364 17.8364C10.7455 17.8364 10.9091 17.7818 10.9637 17.7273L12.1091 16.7455C12.3273 16.5818 12.3273 16.2545 12.1637 16.0909C12.1091 15.9818 12.0001 15.9273 11.8364 15.9273Z" fill="#E0BC85"/>
<path d="M12.0546 20.5091C11.6182 20.5091 11.1818 20.3454 10.8546 19.9636C10.3091 19.3091 10.3637 18.3273 11.0182 17.7273L11.4 17.4C12.0546 16.8545 13.0364 16.9091 13.5818 17.5636C13.8546 17.8909 14.0182 18.2727 13.9637 18.7091C13.9637 19.1454 13.7455 19.5273 13.4182 19.8L13.0364 20.0727C12.7637 20.4 12.4364 20.5091 12.0546 20.5091ZM12.4364 18.1636C12.3273 18.1636 12.2182 18.2182 12.1091 18.2727L11.7273 18.6C11.5637 18.7636 11.5091 19.0364 11.7273 19.2545C11.8909 19.4727 12.2182 19.4727 12.3818 19.3091L12.7637 18.9818C12.8727 18.8727 12.9273 18.7636 12.9273 18.6545C12.9273 18.5454 12.8727 18.3818 12.8182 18.3273C12.7091 18.2182 12.6 18.1636 12.4364 18.1636Z" fill="#E0BC85"/>
<path d="M8.01824 13.0364C7.85461 13.0364 7.69097 12.9818 7.58188 12.8182L6.87279 11.9454L6.32733 11.4C6.10915 11.1818 6.10915 10.8545 6.32733 10.6364C6.54551 10.4182 6.87279 10.4182 7.09097 10.6364L7.63642 11.2364L8.40006 12.1636C8.5637 12.3818 8.5637 12.7636 8.29097 12.9273C8.23642 12.9818 8.12733 13.0364 8.01824 13.0364Z" fill="#E0BC85"/>
<path d="M13.8546 11.0182C13.8001 11.0182 13.691 11.0182 13.6364 11.0182C12.9819 10.9636 12.3819 10.6364 12.0001 10.0909C11.8364 9.87273 11.891 9.54545 12.1091 9.32727L15.4364 6.6C15.491 6.54545 15.5455 6.54545 15.6001 6.49091L18.2728 5.56364C18.5455 5.45454 18.8728 5.61818 18.9819 5.89091C19.091 6.16364 18.9273 6.49091 18.6546 6.6L16.091 7.52727L13.3091 9.81818C13.4728 9.87273 13.5819 9.92727 13.7455 9.98182C14.0728 10.0364 14.4001 9.92727 14.6728 9.65454L15.491 8.94545C15.7091 8.78182 15.9819 8.78182 16.2001 8.94545C16.2001 8.94545 17.5091 9.98182 18.5455 9.49091C18.8182 9.38182 19.1455 9.49091 19.2546 9.76364C19.3637 10.0364 19.2546 10.3636 18.9819 10.4727C17.7819 11.0182 16.5273 10.4182 15.8728 10.0364L15.3819 10.4727C14.9455 10.8 14.4001 11.0182 13.8546 11.0182Z" fill="#E0BC85"/>
<path d="M20.0182 14.5636C19.9091 14.5636 19.8 14.5091 19.7455 14.4545C19.4728 14.2909 19.4182 13.9636 19.5819 13.6909L20.5637 12.1636C20.6182 12.1091 20.6182 12.0545 20.6728 12.0545L21.7637 11.1818C21.9819 11.0182 22.3637 11.0182 22.5273 11.2909C22.6909 11.5091 22.6909 11.8909 22.4182 12.0545L21.3819 12.8727L20.4546 14.2909C20.4 14.4545 20.2364 14.5636 20.0182 14.5636Z" fill="#E0BC85"/>
<path d="M22.6364 12.7091C22.5819 12.7091 22.5819 12.7091 22.5273 12.7091C22.3637 12.7091 22.2546 12.6 22.1455 12.4909L17.6182 5.67272C17.4546 5.45454 17.5091 5.12727 17.7273 4.90909L19.5273 3.6C19.6364 3.49091 19.8 3.49091 19.9637 3.49091C20.1273 3.49091 20.2364 3.6 20.3455 3.70909L24.8728 10.5273C25.0364 10.7455 24.9819 11.0727 24.7637 11.2909L22.9637 12.6C22.8546 12.6545 22.7455 12.7091 22.6364 12.7091ZM18.8728 5.50909L22.8 11.4L23.7273 10.7455L19.7455 4.85454L18.8728 5.50909Z" fill="#E0BC85"/>
<path d="M18.7637 23.6727H4.4182C4.09092 23.6727 3.87274 23.4545 3.87274 23.1273C3.87274 22.8 4.09092 22.5818 4.4182 22.5818H18.7637C19.0909 22.5818 19.3091 22.8 19.3091 23.1273C19.3091 23.4545 19.0364 23.6727 18.7637 23.6727Z" fill="#E0BC85"/>
<path d="M18.7637 26.6182H4.4182C4.09092 26.6182 3.87274 26.4 3.87274 26.0727C3.87274 25.7455 4.09092 25.5273 4.4182 25.5273H18.7637C19.0909 25.5273 19.3091 25.7455 19.3091 26.0727C19.3091 26.4 19.0364 26.6182 18.7637 26.6182Z" fill="#E0BC85"/>
<path d="M19.5819 29.5636H10.3637C10.0364 29.5636 9.81824 29.3455 9.81824 29.0182C9.81824 28.6909 10.0364 28.4727 10.3637 28.4727H19.5819C19.9091 28.4727 20.1273 28.6909 20.1273 29.0182C20.1273 29.3455 19.8546 29.5636 19.5819 29.5636Z" fill="#E0BC85"/>
<path d="M21.5455 32.5091H15.8182C15.4909 32.5091 15.2728 32.2909 15.2728 31.9636C15.2728 31.6364 15.4909 31.4182 15.8182 31.4182H21.5455C21.8728 31.4182 22.0909 31.6364 22.0909 31.9636C22.0909 32.2909 21.8728 32.5091 21.5455 32.5091Z" fill="#E0BC85"/>
<path d="M27.9819 32.2909C27.5455 32.2909 27.0546 32.2364 26.6182 32.1818C26.3455 32.1273 26.1819 31.8545 26.1819 31.5818C26.2364 31.1455 26.0728 30.7636 25.8 30.6545C25.5273 30.5455 25.2 30.7091 24.9273 31.0909C24.7637 31.3091 24.4364 31.3636 24.2182 31.2C23.3455 30.6545 22.6364 30 22.0909 29.1273C21.9273 28.9091 21.9819 28.5818 22.2 28.4182C22.5273 28.1455 22.6909 27.7636 22.5819 27.4909C22.4728 27.2182 22.0909 27.1091 21.6546 27.1636C21.3819 27.2182 21.1091 27 21.0546 26.7273C20.8364 25.7455 20.7819 24.7636 21 23.7273C21.0546 23.4545 21.2728 23.2909 21.6 23.2909C22.0364 23.3455 22.4182 23.1818 22.5273 22.9091C22.6364 22.6364 22.4728 22.3091 22.0909 22.0364C21.8728 21.8727 21.8182 21.5455 21.9819 21.3273C22.5273 20.4545 23.1819 19.7455 24.0546 19.2C24.2728 19.0364 24.6 19.0909 24.7637 19.3091C25.0364 19.6364 25.4182 19.8 25.6909 19.6909C25.9091 19.5818 26.0728 19.2 26.0182 18.7636C25.9637 18.4909 26.1819 18.2182 26.4546 18.1636C27.4364 17.9455 28.4182 17.8909 29.4546 18.1091C29.7273 18.1636 29.8909 18.4364 29.8909 18.7091C29.8364 19.1455 30 19.5273 30.2728 19.6364C30.5455 19.7455 30.8728 19.5818 31.1455 19.2C31.3091 18.9818 31.6364 18.9273 31.8546 19.0909C32.7273 19.6364 33.4364 20.3455 33.9819 21.1636C34.1455 21.3818 34.0909 21.7091 33.8728 21.8727C33.5455 22.1455 33.3819 22.5273 33.491 22.8C33.6 23.0727 33.9819 23.1818 34.4182 23.1273C34.6909 23.0727 34.9637 23.2909 35.0182 23.5636C35.2364 24.5455 35.291 25.5273 35.0728 26.5636C35.0182 26.8364 34.8 27 34.4728 27C34.0364 26.9455 33.6546 27.1091 33.5455 27.3818C33.4364 27.6545 33.6 27.9818 33.9819 28.2545C34.2 28.4182 34.2546 28.7455 34.0909 28.9636C33.5455 29.8364 32.891 30.5455 32.0182 31.0909C31.8 31.2545 31.4728 31.2 31.3091 30.9818C31.0364 30.6545 30.6546 30.4909 30.3819 30.6C30.1637 30.7091 30 31.0909 30.0546 31.5273C30.1091 31.8 29.8909 32.0727 29.6182 32.1273C29.0728 32.2364 28.5273 32.2909 27.9819 32.2909ZM27.2728 31.1455C27.8182 31.2 28.3637 31.2 28.9091 31.0909C28.9637 30.3818 29.3455 29.7818 29.8909 29.5636C30.4364 29.2909 31.1455 29.4545 31.6909 29.8909C32.1273 29.5636 32.5091 29.1273 32.8364 28.6909C32.3455 28.1455 32.2364 27.4909 32.4546 26.8909C32.6728 26.2909 33.2728 25.9091 33.9819 25.8545C34.0364 25.3091 34.0364 24.7636 33.9273 24.2182C33.2182 24.1636 32.6182 23.7818 32.4 23.2364C32.1273 22.6909 32.2909 21.9818 32.7273 21.4364C32.4 21 31.9637 20.6182 31.5273 20.2909C30.9819 20.7818 30.3273 20.8909 29.7273 20.6727C29.1273 20.4545 28.7455 19.8545 28.6909 19.1455C28.1455 19.0909 27.6 19.0909 27.0546 19.2C27 19.9091 26.6182 20.5091 26.0728 20.7273C25.5273 21 24.8182 20.8364 24.2728 20.4C23.8364 20.7273 23.4546 21.1636 23.1273 21.6C23.6182 22.1455 23.7273 22.8 23.5091 23.4C23.2909 24 22.6909 24.3818 21.9819 24.4364C21.9273 24.9818 21.9273 25.5273 22.0364 26.0727C22.7455 26.1273 23.3455 26.5091 23.5637 27.0545C23.8364 27.6 23.6728 28.3091 23.2364 28.8545C23.5637 29.2909 24 29.6727 24.4364 30C24.9819 29.5091 25.6364 29.4 26.2364 29.6182C26.7819 29.8909 27.1637 30.4364 27.2728 31.1455Z" fill="#E0BC85"/>
<path d="M27.9819 28.4182C26.1819 28.4182 24.7637 26.9455 24.7637 25.2C24.7637 23.4 26.2364 21.9818 27.9819 21.9818C29.7273 21.9818 31.2 23.4546 31.2 25.2C31.2 26.9455 29.7819 28.4182 27.9819 28.4182ZM27.9819 23.0182C26.7819 23.0182 25.8546 24 25.8546 25.1455C25.8546 26.2909 26.8364 27.2727 27.9819 27.2727C29.1273 27.2727 30.1091 26.2909 30.1091 25.1455C30.1091 24 29.1819 23.0182 27.9819 23.0182Z" fill="#E0BC85"/>
</g>
<defs>
<clipPath id="clip0_5475_2073">
<rect width="36" height="36" fill="white"/>
</clipPath>
</defs>
</svg>
