<svg width="16" height="16" viewBox="0 0 16 16" fill="none" xmlns="http://www.w3.org/2000/svg">
<g clip-path="url(#clip0_5473_1205)">
<path d="M12.8396 5.80234C12.969 5.78949 13.0635 5.67418 13.0506 5.54475C12.7935 2.95482 10.5253 0.924914 7.92617 0.943981C5.12235 0.964392 2.84636 3.26251 2.85267 6.0668C2.85674 7.87153 3.84326 9.57593 5.40416 10.4808C5.63505 10.6148 5.77849 10.8601 5.77849 11.1211V11.7108C5.29517 11.8695 5.12741 12.5081 5.48036 12.8822C5.12732 13.2565 5.29536 13.895 5.77849 14.0536V14.3496C5.77849 14.7391 6.0954 15.056 6.48492 15.056H7.43903C7.75038 15.0454 7.75101 14.5959 7.43903 14.5851H6.48492C6.35508 14.5851 6.24944 14.4795 6.24944 14.3496V14.0929H9.6792V14.3496C9.6792 14.4795 9.57359 14.5851 9.44372 14.5851H8.46541C8.15416 14.5956 8.15338 15.0452 8.46541 15.056H9.44372C9.83324 15.056 10.1501 14.7391 10.1501 14.3496V14.0536C10.6335 13.8949 10.8012 13.2563 10.4483 12.8822C10.8013 12.5079 10.6333 11.8694 10.1501 11.7108V11.1224C10.1501 10.86 10.2911 10.6156 10.5179 10.4846C11.9237 9.67245 12.8684 8.2278 13.0451 6.62014C13.0592 6.49086 12.966 6.37455 12.8367 6.36036C12.7075 6.34624 12.5911 6.43941 12.577 6.56869C12.4166 8.02791 11.5588 9.33935 10.2822 10.0768C9.91025 10.2917 9.6792 10.6924 9.6792 11.1224V11.6715H6.24944V11.1211C6.24944 10.6928 6.01607 10.2914 5.6404 10.0735C4.21509 9.24714 3.32737 7.71147 3.32362 6.0658C3.31793 3.51988 5.38416 1.43352 7.92961 1.41496C10.3439 1.39723 12.3439 3.19284 12.582 5.59132C12.5948 5.72073 12.7104 5.81553 12.8396 5.80234ZM9.91835 13.6219C9.91713 13.6219 6.01148 13.6219 6.01023 13.6219C5.67903 13.6058 5.68241 13.1291 6.01379 13.1177H9.91479C10.2465 13.1292 10.2493 13.6059 9.91835 13.6219ZM9.91482 12.6467H6.01379C5.68069 12.6349 5.67994 12.1555 6.01267 12.1424C6.0131 12.1424 6.01351 12.1424 6.01395 12.1424H9.91466C9.9151 12.1424 9.9155 12.1425 9.91594 12.1424C10.2489 12.1557 10.2476 12.6351 9.91482 12.6467Z" fill="#E0BC85"/>
<path d="M6.66806 4.91379C6.57607 4.82187 6.42701 4.82187 6.33502 4.91379L5.35978 5.88903C5.26785 6.00006 5.26785 6.11105 5.35978 6.22207L6.33502 7.19728C6.56519 7.4043 6.88914 7.09376 6.66806 6.86424L5.85929 6.05554L6.66806 5.2468C6.76002 5.15485 6.76002 5.00575 6.66806 4.91379Z" fill="#E0BC85"/>
<path d="M7.68717 7.13619L8.66241 5.18571C8.72057 5.06937 8.67341 4.92793 8.55713 4.8698C8.44073 4.81156 8.29933 4.85876 8.24122 4.97507L7.26598 6.92555C7.13833 7.21796 7.53566 7.40159 7.68717 7.13619Z" fill="#E0BC85"/>
<path d="M9.26056 7.19729C9.37158 7.28922 9.48257 7.28922 9.5936 7.19729L10.5688 6.22208C10.6608 6.13009 10.6608 5.98103 10.5688 5.88907L9.5936 4.91383C9.50161 4.82184 9.35255 4.82187 9.26056 4.9138C9.1686 5.00579 9.1686 5.15485 9.26056 5.24681L10.0693 6.05558L9.26056 6.86428C9.16863 6.95624 9.16863 7.1053 9.26056 7.19729Z" fill="#E0BC85"/>
<path d="M4.55644 6.36172C4.42801 6.38207 4.34037 6.50272 4.36078 6.63115C5.19858 11.0159 11.4907 10.5359 11.6133 6.05543C11.6354 2.95445 7.87988 1.25068 5.56391 3.30741C4.90589 3.88262 4.47577 4.67361 4.35268 5.53457C4.33427 5.66332 4.42376 5.78262 4.55247 5.801C4.68141 5.81929 4.8005 5.72996 4.81891 5.60121C5.04083 4.04847 6.39309 2.87753 7.96436 2.87753C12.1744 3.03732 12.1735 9.07399 7.96433 9.23312C6.39174 9.23312 5.07184 8.10781 4.82591 6.55735C4.8055 6.42898 4.68503 6.34115 4.55644 6.36172Z" fill="#E0BC85"/>
<path d="M15.7664 5.8197H14.7911C14.4793 5.83049 14.4796 6.27996 14.7911 6.29065H15.7664C16.0782 6.27986 16.0779 5.83039 15.7664 5.8197Z" fill="#E0BC85"/>
<path d="M14.125 5.10366L14.8146 4.41405C14.9066 4.32209 14.9066 4.17299 14.8146 4.08104C14.7226 3.98911 14.5735 3.98908 14.4816 4.08107L13.792 4.77069C13.7 4.86264 13.7036 5.00827 13.792 5.10369C13.8484 5.16461 14.0054 5.21406 14.125 5.10366Z" fill="#E0BC85"/>
<path d="M14.1253 7.00673C14.0333 6.91477 13.8842 6.91474 13.7923 7.0067C13.7003 7.09865 13.7003 7.24775 13.7922 7.33971L14.4818 8.02932C14.5928 8.12128 14.7038 8.12131 14.8148 8.02935C14.9068 7.9374 14.9068 7.7883 14.8149 7.69634L14.1253 7.00673Z" fill="#E0BC85"/>
<path d="M1.44461 6.05519C1.44461 5.92513 1.33921 5.8197 1.20912 5.8197H0.233879C-0.0779064 5.83049 -0.0776876 6.27996 0.233879 6.29065H1.20912C1.33918 6.29068 1.44461 6.18525 1.44461 6.05519Z" fill="#E0BC85"/>
<path d="M1.51834 4.08107C1.42635 3.98908 1.27725 3.98911 1.18533 4.08104C1.09334 4.17299 1.09334 4.32209 1.1853 4.41405L1.87488 5.10366C1.98588 5.19562 2.09687 5.19565 2.20789 5.10369C2.29988 5.01174 2.29988 4.86264 2.20792 4.77069L1.51834 4.08107Z" fill="#E0BC85"/>
<path d="M1.87488 7.00707L1.1853 7.69669C1.09334 7.78864 1.09334 7.93774 1.18533 8.0297C1.29632 8.12165 1.40734 8.12162 1.51834 8.02966L2.20792 7.34005C2.29988 7.24809 2.29988 7.099 2.20789 7.00704C2.11597 6.91514 1.96687 6.91511 1.87488 7.00707Z" fill="#E0BC85"/>
</g>
<defs>
<clipPath id="clip0_5473_1205">
<rect width="16" height="16" fill="white"/>
</clipPath>
</defs>
</svg>
