<svg width="24" height="24" viewBox="0 0 24 24" fill="none" xmlns="http://www.w3.org/2000/svg">
<g clip-path="url(#clip0_5556_111)">
<g clip-path="url(#clip1_5556_111)">
<g clip-path="url(#clip2_5556_111)">
<path d="M12 24C18.6274 24 24 18.6274 24 12C24 5.37258 18.6274 0 12 0C5.37258 0 0 5.37258 0 12C0 18.6274 5.37258 24 12 24Z" fill="#627EEA"/>
<path d="M11.9984 5.6001L11.911 5.89182V14.3563L11.9984 14.4419L15.9975 12.1195L11.9984 5.6001Z" fill="#C0CBF6"/>
<path d="M11.9992 5.6001L8 12.1195L11.9992 14.4419V10.3335V5.6001Z" fill="white"/>
<path d="M11.9985 15.1846L11.9492 15.2436V18.2587L11.9985 18.4L15.9999 12.8633L11.9985 15.1846Z" fill="#C0CBF6"/>
<path d="M11.9992 18.4V15.1846L8 12.8633L11.9992 18.4Z" fill="white"/>
<path d="M11.9985 14.4463L15.9976 12.1238L11.9985 10.3379V14.4463Z" fill="#8197EE"/>
<path d="M8 12.1238L11.9992 14.4463V10.3379L8 12.1238Z" fill="#C0CBF6"/>
</g>
</g>
</g>
<defs>
<clipPath id="clip0_5556_111">
<rect width="24" height="24" fill="white"/>
</clipPath>
<clipPath id="clip1_5556_111">
<rect width="24" height="24" fill="white"/>
</clipPath>
<clipPath id="clip2_5556_111">
<rect width="24" height="24" fill="white"/>
</clipPath>
</defs>
</svg>
