<svg width="36" height="36" viewBox="0 0 36 36" fill="none" xmlns="http://www.w3.org/2000/svg">
<g clip-path="url(#clip0_5475_2131)">
<path d="M28.5782 5.29138C28.7835 5.06019 29.1402 5.04029 29.3714 5.24751C29.6026 5.45282 29.6246 5.80958 29.4173 6.04077C29.21 6.27203 28.8552 6.29193 28.624 6.08661C28.3908 5.87933 28.3708 5.52461 28.5782 5.29138ZM7.38126 29.9145C7.15007 29.7073 6.79331 29.7272 6.588 29.9604C6.38064 30.1916 6.40061 30.5464 6.63384 30.7536C6.86503 30.9609 7.21982 30.941 7.4271 30.7078C7.63439 30.4766 7.61449 30.1218 7.38126 29.9145ZM35.0883 28.4097C35.0883 32.0906 32.0936 35.0852 28.4129 35.0852C26.9461 35.0852 25.5885 34.6095 24.4856 33.805C22.4308 34.6502 20.225 35.0843 18.0067 35.0843C17.4042 35.0843 16.8009 35.0523 16.1994 34.9881C13.3266 34.6808 10.5607 33.6454 8.20089 31.9938C7.94636 31.8157 7.88442 31.465 8.06252 31.2105C8.24062 30.9559 8.59134 30.894 8.84594 31.0722C13.1246 34.0667 18.6789 34.7648 23.5389 32.9676C23.239 32.6473 22.9704 32.2976 22.7377 31.9232C21.2168 32.4419 19.6265 32.7055 18.0027 32.7055C13.84 32.7055 9.95526 30.9847 7.1718 27.9473L7.00593 28.7718C6.97408 28.9302 6.87557 29.0673 6.73565 29.1481C6.64924 29.1979 6.55214 29.2234 6.45447 29.2234C6.394 29.2234 6.33325 29.2136 6.27468 29.1938L1.90778 27.7209C1.69832 27.6503 1.54961 27.4635 1.52781 27.2435C1.50595 27.0235 1.615 26.8112 1.80646 26.7007L2.9335 26.0505C0.879252 22.211 0.369135 17.8045 1.50138 13.5788C2.68235 9.17122 5.5087 5.48741 9.45991 3.20577C12.3301 1.549 15.5879 0.764943 18.8834 0.938474C22.092 1.10744 25.1769 2.16789 27.8044 4.00522C28.059 4.18326 28.1211 4.53397 27.943 4.78858C27.7651 5.04318 27.4143 5.10526 27.1597 4.92723C22.0965 1.38672 15.3698 1.09344 10.0224 4.18009C2.40377 8.5794 -0.216638 18.3589 4.18113 25.98C4.25573 26.1092 4.27591 26.2628 4.23724 26.4069C4.19857 26.5509 4.10428 26.6738 3.97504 26.7484L3.44714 27.0529L6.02887 27.9237L6.56613 25.2531L6.03836 25.5583C5.76942 25.7138 5.42524 25.6217 5.26985 25.3528C5.26985 25.3528 5.26985 25.3528 5.26985 25.3527L5.26598 25.355C3.97778 23.1284 3.29688 20.585 3.29688 17.9997C3.29688 9.892 9.89381 3.29591 18.0026 3.29591C22.1659 3.29591 26.0499 5.01646 28.8316 8.05347L28.9974 7.22947C29.0292 7.07113 29.1277 6.93409 29.2675 6.8533C29.4074 6.77251 29.5753 6.75578 29.7283 6.80732L34.0973 8.27826C34.3068 8.34878 34.4557 8.53553 34.4776 8.75547C34.4995 8.97547 34.3906 9.18789 34.1991 9.29842L33.07 9.95036C34.2719 12.1934 34.9436 14.6131 35.0679 17.1516C35.1898 19.6414 34.7534 22.1679 33.8072 24.4813C34.6122 25.5844 35.0882 26.9424 35.0882 28.4096L35.0883 28.4097ZM29.437 10.749L29.9673 10.4428C30.2363 10.2876 30.5802 10.3796 30.7355 10.6486L30.7394 10.6463C32.0262 12.8706 32.7064 15.4134 32.7064 17.9996C32.7064 19.6216 32.4434 21.2119 31.9258 22.7342C32.3001 22.9669 32.6497 23.2355 32.97 23.5352C34.6295 19.0637 34.226 14.185 31.8222 10.0213C31.667 9.75229 31.7592 9.40825 32.0282 9.25293L32.5581 8.94693L29.9745 8.07709L29.437 10.749ZM27.0172 7.8419C25.5611 8.27987 24.6939 8.789 24.3708 9.39489C24.1875 9.73865 24.1738 10.135 24.329 10.6065C24.5969 11.4209 24.9919 11.713 25.6916 11.6146C27.06 11.4228 27.6165 12.156 27.7921 12.4801C28.1877 13.2103 28.0349 14.2448 27.4289 14.9399C26.8456 15.6089 25.981 15.8141 25.1154 15.4885C24.4577 15.2417 24.0146 14.9449 23.6911 14.7281C23.6076 14.6721 23.5108 14.6073 23.437 14.5636C23.3902 14.6299 23.3179 14.7483 23.2151 14.9572C23.1846 15.0192 23.1815 15.0257 23.2766 15.2325C23.5152 15.7514 23.6997 16.3886 22.8622 17.3865C22.8236 17.4324 22.7804 17.4838 22.9437 17.7219C23.1512 18.0245 23.546 18.3774 23.964 18.751C24.2237 18.9831 24.4922 19.2231 24.7401 19.4729C25.3661 20.1064 25.9512 21.0249 26.388 22.0465C27.0269 21.8427 27.7072 21.7323 28.4129 21.7323C29.2964 21.7323 30.1402 21.9054 30.9128 22.2186C31.3567 20.8598 31.5815 19.4435 31.5815 17.9997C31.5815 15.7998 31.0477 13.6351 30.0355 11.7026L28.9214 12.346C28.73 12.4566 28.4916 12.4447 28.312 12.3157C28.1325 12.1868 28.0451 11.9647 28.0886 11.748L28.5507 9.45051C28.0787 8.86804 27.5657 8.33099 27.0173 7.84211L27.0172 7.8419ZM4.79453 14.8373C7.41902 15.1166 10.2232 16.7952 10.8161 17.9135C11.2843 18.7965 11.2895 19.6869 11.2933 20.3369C11.2982 21.1784 11.3546 21.1911 11.4909 21.2217C13.794 21.7378 14.2234 24.3438 14.537 26.2466C14.6414 26.8805 14.7974 27.8266 14.9846 28.0324C15.0126 28.0249 15.0652 28.0058 15.1469 27.9575C15.3929 27.8121 15.5396 27.034 15.6574 26.4089C15.8553 25.3589 16.0796 24.1689 16.9184 23.4613C17.3035 23.1363 17.4526 22.8533 17.6253 22.5257C17.7614 22.2676 17.9156 21.9748 18.186 21.689C18.459 21.3992 18.6315 20.8217 18.605 20.2854C18.5884 19.9532 18.4965 19.7578 18.4387 19.7076L18.3968 19.6709C17.5316 18.9134 17.0974 18.5333 16.6426 18.3578C16.1833 18.1806 15.5758 18.16 14.3655 18.1189L14.0306 18.1075C13.2522 18.0797 12.5836 17.7636 12.0966 17.193C11.4437 16.4279 11.145 15.2301 11.2976 13.9886C11.5154 12.2188 13.5851 11.7431 15.5868 11.283C17.0223 10.953 18.5067 10.6119 19.046 9.85747C19.3469 9.43672 19.4683 9.08797 19.4171 8.79118C19.3186 8.22067 18.5522 7.68721 17.7408 7.12232C16.8202 6.48142 15.7918 5.76529 15.2581 4.69963C10.1078 5.76065 6.01368 9.74659 4.79453 14.8373ZM22.2218 30.9103C21.9084 30.1376 21.7353 29.2935 21.7353 28.4098C21.7353 25.8317 23.2041 23.5904 25.3486 22.4781C24.9687 21.595 24.4601 20.7902 23.9407 20.2646C23.7173 20.0396 23.4617 19.811 23.2142 19.5899C22.7441 19.1697 22.3002 18.7729 22.0158 18.3582C21.4526 17.537 21.7647 16.9436 22.0009 16.6629C22.4499 16.1278 22.3804 15.9768 22.2543 15.7026C22.135 15.443 21.9352 15.0086 22.2059 14.4601C22.4717 13.9199 22.7344 13.5369 23.1515 13.4251C23.5912 13.3072 23.944 13.5435 24.3172 13.7936C24.6104 13.99 24.9751 14.2344 25.511 14.4355C26.0497 14.638 26.3901 14.4196 26.5809 14.2007C26.8747 13.8638 26.9743 13.3325 26.8029 13.0162C26.6276 12.6927 26.1867 12.6813 25.8479 12.7288C24.9737 12.8517 23.8148 12.6443 23.2603 10.9584C23.0075 10.1903 23.0471 9.48622 23.3781 8.86572C23.8702 7.94301 24.9138 7.38121 25.973 6.99934C23.6853 5.33483 20.918 4.42091 18.0026 4.42091C17.4783 4.42091 16.9612 4.45185 16.4522 4.50993C16.9045 5.16798 17.6529 5.69047 18.3835 6.19904C19.3933 6.90203 20.3472 7.56599 20.5256 8.59986C20.6306 9.20842 20.446 9.83385 19.961 10.5119C19.174 11.6128 17.4784 12.0026 15.8387 12.3794C14.2148 12.7527 12.5356 13.1387 12.4142 14.1259C12.3011 15.0458 12.5073 15.9412 12.9523 16.4626C13.237 16.7963 13.6027 16.9665 14.0702 16.9831L14.4037 16.9945C17.0771 17.0854 17.2098 17.1366 19.1377 18.8244L19.1783 18.86C19.5027 19.1422 19.6985 19.6291 19.7283 20.2296C19.7703 21.0737 19.486 21.9497 19.0039 22.4613C18.8388 22.6359 18.7424 22.8188 18.6204 23.0504C18.4314 23.4087 18.1964 23.8548 17.6438 24.3212C17.1108 24.7708 16.9259 25.7518 16.7628 26.6174C16.5782 27.5965 16.4039 28.5214 15.7196 28.9259C15.4523 29.0841 15.1978 29.1635 14.9588 29.1635C14.8057 29.1635 14.659 29.1309 14.5192 29.0657C13.8066 28.7334 13.639 27.7167 13.4269 26.4296C13.1509 24.7544 12.8073 22.6697 11.2444 22.3195C10.1784 22.0798 10.1725 21.0762 10.1682 20.3435C10.1648 19.7509 10.1609 19.0794 9.82209 18.4405C9.45316 17.7446 6.9809 16.1542 4.5772 15.9441C4.47489 16.6146 4.42181 17.301 4.42181 17.9996C4.42181 20.1988 4.95632 22.3641 5.96967 24.2984L7.08173 23.6555C7.27312 23.5448 7.51162 23.5566 7.69127 23.6855C7.87092 23.8144 7.95832 24.0366 7.91472 24.2534L7.45263 26.5507C10.0473 29.75 13.8772 31.5804 18.0026 31.5804C19.4479 31.5804 20.8644 31.3551 22.2218 30.9102V30.9103ZM33.9632 28.4098C33.9632 25.3482 31.4733 22.8573 28.4128 22.8573C25.3523 22.8573 22.8603 25.3482 22.8603 28.4098C22.8603 31.4714 25.3512 33.9602 28.4128 33.9602C31.4744 33.9602 33.9632 31.4703 33.9632 28.4098ZM28.5275 27.8583C27.8468 27.7151 27.8231 27.6544 27.8231 27.3912C27.8231 27.1451 28.0931 26.9372 28.4127 26.9372C28.6471 26.9372 28.8597 27.0464 28.9543 27.2155C29.106 27.4866 29.4487 27.5833 29.7199 27.4316C29.991 27.2799 30.0877 26.9372 29.936 26.666C29.7305 26.2989 29.3844 26.0291 28.9752 25.8991V25.7488C28.9752 25.4382 28.7234 25.1863 28.4127 25.1863C28.1021 25.1863 27.8502 25.4382 27.8502 25.7488V25.8999C27.1803 26.1149 26.6981 26.702 26.6981 27.3912C26.6981 28.623 27.7374 28.8416 28.2959 28.9591C28.9766 29.1024 29.0002 29.163 29.0002 29.4262C29.0002 29.6734 28.7312 29.8822 28.4128 29.8822C28.1782 29.8822 27.9647 29.7719 27.8687 29.6011C27.7165 29.3302 27.3734 29.2342 27.1027 29.3863C26.8319 29.5386 26.7358 29.8815 26.888 30.1523C27.0946 30.5199 27.4411 30.7899 27.8503 30.9201V31.0706C27.8503 31.3813 28.1021 31.6331 28.4128 31.6331C28.7234 31.6331 28.9753 31.3813 28.9753 31.0706V30.9192C29.644 30.7039 30.1252 30.1162 30.1252 29.4263C30.1252 28.1945 29.086 27.9758 28.5275 27.8583ZM33.398 28.4098C33.398 31.1586 31.1616 33.3951 28.4128 33.3951C25.664 33.3951 23.4276 31.1587 23.4276 28.4098C23.4276 25.6608 25.664 23.4245 28.4128 23.4245C31.1616 23.4245 33.398 25.6608 33.398 28.4098ZM32.273 28.4098C32.273 26.2812 30.5413 24.5495 28.4128 24.5495C26.2843 24.5495 24.5526 26.2812 24.5526 28.4098C24.5526 30.5383 26.2843 32.2701 28.4128 32.2701C30.5413 32.2701 32.273 30.5383 32.273 28.4098Z" fill="#E0BC85"/>
</g>
<defs>
<clipPath id="clip0_5475_2131">
<rect width="36" height="36" fill="white"/>
</clipPath>
</defs>
</svg>
