<svg width="16" height="16" viewBox="0 0 16 16" fill="none" xmlns="http://www.w3.org/2000/svg">
<path d="M15.7591 9.93532C14.6903 14.2208 10.3495 16.8293 6.06325 15.7605C1.77852 14.6917 -0.829222 10.3509 0.239561 6.06541C1.30761 1.77921 5.64843 -0.829273 9.93316 0.23951C14.2194 1.30829 16.8271 5.64985 15.7583 9.93532H15.7591Z" fill="url(#paint0_linear_5623_26)"/>
<path d="M11.5268 6.86024C11.6863 5.79589 10.8758 5.22385 9.76718 4.84151L10.1266 3.39924L9.24903 3.18077L8.89917 4.58465C8.66814 4.52708 8.43121 4.4732 8.19575 4.41931L8.54856 3.00583L7.67095 2.78735L7.31149 4.22888C7.12032 4.18533 6.93284 4.14252 6.75127 4.0975V4.09307L5.5415 3.79118L5.30826 4.72858C5.30826 4.72858 5.95927 4.87768 5.94599 4.88727C6.30176 4.97585 6.36597 5.21131 6.3549 5.39805L5.94525 7.04108C5.96961 7.04699 6.00135 7.05658 6.03678 7.0706C6.00725 7.06322 5.97625 7.0551 5.94378 7.04772L5.36952 9.34915C5.32598 9.45691 5.216 9.6193 4.96726 9.5573C4.97611 9.56984 4.32953 9.39787 4.32953 9.39787L3.89404 10.4024L5.03664 10.6873C5.24921 10.7405 5.45736 10.7966 5.66256 10.849L5.2994 12.3075L6.17628 12.526L6.53574 11.083C6.77488 11.1479 7.00739 11.2077 7.23547 11.2645L6.87675 12.7009L7.75436 12.9194L8.11751 11.4638C9.6144 11.7473 10.74 11.6329 11.2131 10.2792C11.5947 9.18898 11.1939 8.56011 10.4064 8.15046C10.9799 8.01834 11.4117 7.64116 11.5268 6.86172V6.86024ZM9.52139 9.67244C9.2505 10.7626 7.41483 10.1729 6.81991 10.0253L7.30189 8.09289C7.89681 8.24125 9.80483 8.53575 9.52139 9.67244ZM9.79302 6.84474C9.54575 7.83603 8.01786 7.33263 7.52259 7.20863L7.95955 5.45636C8.45482 5.57962 10.0506 5.81065 9.79302 6.84474Z" fill="#F0F0F2"/>
<defs>
<linearGradient id="paint0_linear_5623_26" x1="-1.83134" y1="-24.6667" x2="20.9257" y2="-23.3822" gradientUnits="userSpaceOnUse">
<stop stop-color="#13161F"/>
<stop offset="0.265" stop-color="#525661"/>
<stop offset="0.615" stop-color="#1E212A"/>
<stop offset="1" stop-color="#494F5C"/>
</linearGradient>
</defs>
</svg>
