<svg width="98" height="28" viewBox="0 0 98 28" fill="none" xmlns="http://www.w3.org/2000/svg">
<path d="M20.0599 12.6468C18.6995 18.1018 13.174 21.4222 7.71799 20.0617C2.2639 18.7013 -1.05553 13.1758 0.304941 7.72075C1.66447 2.26478 7.18996 -1.05559 12.6441 0.304876C18.1 1.66534 21.4195 7.19178 20.059 12.6468H20.0599Z" fill="#F0F0F2"/>
<path d="M14.6726 8.73253C14.8755 7.3777 13.8439 6.64955 12.4327 6.16286L12.8902 4.32698L11.7731 4.04887L11.3278 5.8359C11.0337 5.76261 10.7321 5.69403 10.4324 5.62544L10.8815 3.8262L9.76434 3.5481L9.30678 5.38304C9.06344 5.3276 8.8248 5.27311 8.59367 5.2158V5.21016L7.05374 4.82588L6.75685 6.01911C6.75685 6.01911 7.58553 6.2089 7.56861 6.22111C8.02148 6.33386 8.10322 6.63358 8.08913 6.87128L7.56767 8.96273C7.59868 8.97024 7.63908 8.98246 7.68418 9.00031C7.6466 8.99091 7.60714 8.98058 7.5658 8.97118L6.83483 11.9007C6.77939 12.0379 6.6394 12.2446 6.32277 12.1656C6.33405 12.1816 5.511 11.9627 5.511 11.9627L4.95667 13.2414L6.41109 13.6041C6.68168 13.6717 6.94663 13.7432 7.20783 13.8099L6.74557 15.6664L7.86175 15.9445L8.31931 14.1077C8.62373 14.1904 8.91969 14.2665 9.21001 14.3388L8.75339 16.1672L9.87051 16.4453L10.3328 14.5925C12.2382 14.9533 13.671 14.8077 14.2732 13.0845C14.759 11.6968 14.2488 10.8963 13.2463 10.3749C13.9763 10.2067 14.526 9.72658 14.6726 8.73441V8.73253ZM12.1198 12.3122C11.775 13.6999 9.43832 12.9492 8.68104 12.7613L9.29457 10.3016C10.0518 10.4904 12.4806 10.8653 12.1198 12.3122ZM12.4655 8.7128C12.1508 9.97462 10.2059 9.33385 9.5755 9.176L10.1317 6.94551C10.7621 7.10242 12.7935 7.39649 12.4655 8.7128Z" fill="#0E111A"/>
<path d="M29.8426 6.16298C30.6684 6.16298 31.3816 6.31049 31.981 6.60175C32.5832 6.89489 33.0803 7.29044 33.4796 7.78746C33.8733 8.2873 34.1655 8.87076 34.3543 9.54066C34.5422 10.2115 34.6362 10.9331 34.6362 11.7054C34.6362 12.892 34.4191 14.0129 33.9804 15.069C33.5416 16.1269 32.9459 17.0448 32.1886 17.8275C31.4323 18.6092 30.5378 19.2255 29.5081 19.6812C28.4793 20.1369 27.3603 20.3652 26.1595 20.3652C26.0045 20.3652 25.7311 20.3605 25.3459 20.353C24.9597 20.3455 24.5172 20.3051 24.0202 20.2384C23.5203 20.1689 22.9923 20.0655 22.4342 19.9274C21.8771 19.7921 21.3472 19.6023 20.8483 19.3608L25.3074 0.625267L29.3014 0.00610352L27.7051 6.6553C28.0471 6.50121 28.391 6.38189 28.7349 6.29545C29.0787 6.20995 29.448 6.16485 29.8426 6.16485V6.16298ZM26.4921 17.1961C27.0935 17.1961 27.66 17.0486 28.1927 16.7573C28.7264 16.4661 29.1877 16.0734 29.5739 15.5848C29.96 15.0934 30.2654 14.54 30.4881 13.9218C30.7107 13.3036 30.8235 12.6581 30.8235 11.9873C30.8235 11.1623 30.6854 10.5197 30.411 10.0546C30.1367 9.5914 29.6284 9.35839 28.8899 9.35839C28.6484 9.35839 28.3365 9.40443 27.9503 9.48711C27.5623 9.57448 27.2156 9.75676 26.9046 10.0292L25.205 17.0899C25.3074 17.1078 25.3985 17.1257 25.4756 17.1416C25.5517 17.1595 25.6353 17.1717 25.718 17.1801C25.8063 17.1895 25.9068 17.1952 26.0289 17.1952C26.1511 17.1952 26.3033 17.1952 26.4921 17.1952V17.1961Z" fill="#F0F0F2"/>
<path d="M38.7786 20.0044H34.9659L38.1867 6.44853H42.0276L38.7805 20.0044H38.7796H38.7786ZM40.6342 4.79774C40.1015 4.79774 39.6195 4.63895 39.1911 4.32138C38.7589 4.00569 38.5456 3.51995 38.5456 2.86508C38.5456 2.50523 38.6189 2.167 38.7636 1.84849C38.9111 1.52998 39.1037 1.25657 39.3442 1.02356C39.5848 0.792433 39.8638 0.608279 40.1814 0.469226C40.4999 0.332051 40.8391 0.264404 41.2008 0.264404C41.7326 0.264404 42.2127 0.423189 42.643 0.740757C43.0714 1.0602 43.2866 1.54595 43.2866 2.19706C43.2866 2.55879 43.2133 2.89797 43.0677 3.21647C42.9221 3.53498 42.7294 3.80839 42.4889 4.0414C42.2503 4.27253 41.9684 4.45668 41.6518 4.59479C41.3323 4.73385 40.995 4.79961 40.6342 4.79961V4.79774Z" fill="#F0F0F2"/>
<path d="M45.3686 3.0718L49.3635 2.45264L48.3826 6.44854H52.6614L51.889 9.59228H47.6357L46.5026 14.3342C46.3983 14.7297 46.3391 15.099 46.3222 15.4419C46.3034 15.7867 46.3466 16.0827 46.45 16.3317C46.5524 16.5816 46.7366 16.7742 47.0043 16.9104C47.2702 17.0485 47.6517 17.119 48.1506 17.119C48.5621 17.119 48.9633 17.0796 49.3504 17.0025C49.7356 16.9264 50.1264 16.8202 50.5211 16.6812L50.8057 19.6201C50.2899 19.809 49.7318 19.9715 49.1305 20.1087C48.5283 20.2477 47.8152 20.3144 46.9912 20.3144C45.8064 20.3144 44.8875 20.1387 44.2327 19.7883C43.5787 19.435 43.1174 18.953 42.8402 18.3433C42.5678 17.7354 42.4456 17.0345 42.4794 16.2443C42.5151 15.4523 42.6345 14.6208 42.8402 13.7442L45.3667 3.07368V3.07556L45.3686 3.0718Z" fill="#F0F0F2"/>
<path d="M52.4942 14.5926C52.4942 13.4248 52.683 12.3236 53.0607 11.2929C53.4375 10.2613 53.9815 9.35933 54.6861 8.58514C55.3889 7.81471 56.2439 7.204 57.2511 6.75584C58.2536 6.31049 59.3764 6.08594 60.6128 6.08594C61.387 6.08594 62.0785 6.15922 62.6873 6.30579C63.2981 6.4533 63.8514 6.64497 64.3513 6.88456L63.0359 9.87608C62.692 9.73703 62.3359 9.61395 61.9667 9.50214C61.5975 9.38846 61.1474 9.33396 60.6138 9.33396C59.3407 9.33396 58.3344 9.77273 57.5846 10.6475C56.8386 11.5231 56.4628 12.7013 56.4628 14.1792C56.4628 15.0549 56.6517 15.7633 57.0313 16.3054C57.409 16.8475 58.1061 17.1172 59.118 17.1172C59.6178 17.1172 60.0998 17.0646 60.5611 16.9631C61.0262 16.8598 61.4368 16.7301 61.7995 16.577L62.0842 19.6437C61.6022 19.8306 61.0694 19.9997 60.486 20.1482C59.9006 20.291 59.2044 20.3652 58.3974 20.3652C57.3319 20.3652 56.429 20.2093 55.6915 19.902C54.953 19.5901 54.3432 19.1758 53.8622 18.6515C53.3792 18.1253 53.0325 17.5118 52.8174 16.8071C52.6032 16.1034 52.4932 15.364 52.4932 14.5917L52.4942 14.5926Z" fill="#F0F0F2"/>
<path d="M69.4389 20.3642C68.5285 20.3642 67.7374 20.2252 67.0665 19.9508C66.3976 19.6765 65.8433 19.2913 65.4054 18.7914C64.9667 18.2944 64.6378 17.7053 64.4133 17.027C64.1887 16.3486 64.0797 15.597 64.0797 14.7739C64.0797 13.7414 64.2451 12.7088 64.5805 11.679C64.914 10.6474 65.4092 9.72008 66.064 8.89609C66.7142 8.07117 67.5157 7.39657 68.459 6.87042C69.4023 6.34803 70.4865 6.08496 71.7042 6.08496C72.5977 6.08496 73.385 6.22401 74.0643 6.49836C74.7408 6.77271 75.2989 7.16075 75.7395 7.65777C76.1755 8.15761 76.5071 8.74389 76.7298 9.42318C76.9544 10.1006 77.0652 10.8532 77.0652 11.6772C77.0652 12.7069 76.9018 13.7385 76.5767 14.772C76.2516 15.7999 75.7696 16.7291 75.1335 17.555C74.4984 18.379 73.7045 19.0536 72.7499 19.5769C71.7972 20.1012 70.6923 20.3633 69.438 20.3633L69.4389 20.3642ZM71.3453 9.33392C70.7797 9.33392 70.2798 9.49835 69.8514 9.82249C69.422 10.1504 69.0612 10.5629 68.77 11.0608C68.4759 11.5607 68.2579 12.1056 68.1104 12.6975C67.9648 13.2913 67.8924 13.8522 67.8924 14.3849C67.8924 15.2456 68.0315 15.9145 68.3039 16.3975C68.5802 16.8766 69.0772 17.1181 69.7997 17.1181C70.3672 17.1181 70.8642 16.9556 71.2955 16.6277C71.723 16.3026 72.0837 15.8892 72.3769 15.3912C72.6691 14.8942 72.8889 14.3474 73.0365 13.7545C73.1802 13.1626 73.2544 12.5989 73.2544 12.0671C73.2544 11.2093 73.1163 10.5375 72.841 10.0564C72.5657 9.57727 72.0668 9.3358 71.3453 9.3358V9.33392Z" fill="#F0F0F2"/>
<path d="M81.2238 20.0044H77.4064L80.6281 6.44853H84.4708L81.2247 20.0044H81.2238ZM83.0766 4.79774C82.5448 4.79774 82.0618 4.63895 81.6343 4.32138C81.205 4.00569 80.9889 3.51995 80.9889 2.86508C80.9889 2.50523 81.0631 2.167 81.2087 1.84849C81.3544 1.52998 81.5479 1.25657 81.7894 1.02356C82.029 0.792433 82.3108 0.608279 82.6265 0.469226C82.9431 0.332051 83.2823 0.264404 83.6431 0.264404C84.1768 0.264404 84.6578 0.423189 85.0872 0.740757C85.5166 1.0602 85.7336 1.54595 85.7336 2.19706C85.7336 2.55879 85.6566 2.89797 85.5128 3.21647C85.3691 3.53498 85.1746 3.80839 84.935 4.0414C84.6935 4.27253 84.4154 4.45668 84.0978 4.59479C83.7784 4.73385 83.4402 4.79961 83.0775 4.79961L83.0766 4.79774Z" fill="#F0F0F2"/>
<path d="M87.219 7.06594C87.5083 6.98138 87.8316 6.8799 88.1839 6.76904C88.5372 6.65817 88.9308 6.55482 89.3715 6.4618C89.8074 6.36597 90.2988 6.28799 90.8391 6.22786C91.3793 6.16678 91.9956 6.13672 92.6806 6.13672C94.6921 6.13672 96.0789 6.723 96.8447 7.89086C97.6095 9.05872 97.7419 10.6578 97.2458 12.6844L95.4908 20.0035H91.6508L93.3514 12.8385C93.4548 12.3913 93.5365 11.9582 93.5966 11.5363C93.6577 11.1173 93.6539 10.748 93.5825 10.4286C93.5149 10.1129 93.3552 9.85452 93.1071 9.6544C92.8553 9.45709 92.4748 9.35844 91.959 9.35844C91.4432 9.35844 90.9556 9.41199 90.4388 9.51534L87.9387 20.0035H84.0978L87.218 7.06594H87.219Z" fill="#F0F0F2"/>
<path d="M24.318 24.0631C25.5779 24.0631 26.8134 24.0537 28.0499 24.0678C28.5638 24.0735 28.9293 24.5667 28.809 25.1173C28.6314 25.9375 28.4078 26.7484 28.203 27.562C28.2002 27.5714 28.1908 27.5799 28.1833 27.5921H27.52C27.6515 27.0631 27.7802 26.5435 27.9089 26.024C27.9869 25.7083 28.0668 25.3926 28.1438 25.076C28.2378 24.687 28.0743 24.4737 27.6797 24.4718C27.4401 24.4709 27.1996 24.4718 26.9393 24.4718C26.68 25.5082 26.4216 26.5417 26.1604 27.5864H25.4802C25.5685 27.2275 25.6559 26.8743 25.7442 26.521C25.8936 25.9225 26.0439 25.324 26.1933 24.7255C26.2469 24.5122 26.2149 24.4728 25.9922 24.4718C25.6775 24.4718 25.3628 24.4784 25.048 24.4681C24.924 24.4643 24.8845 24.5075 24.8563 24.6231C24.6261 25.5664 24.3856 26.5078 24.1554 27.4511C24.1263 27.5695 24.0803 27.6081 23.9609 27.6005C23.7965 27.5893 23.6302 27.5977 23.4357 27.5977C23.7317 26.4129 24.0239 25.2423 24.3189 24.0631H24.318Z" fill="#F0F0F2"/>
<path d="M40.1513 24.0613C40.2481 23.6696 40.3496 23.2834 40.436 22.8954C40.4661 22.7591 40.5187 22.7056 40.6634 22.7187C40.8212 22.7338 40.9819 22.7225 41.1651 22.7225C41.0777 23.0758 40.9941 23.4121 40.9105 23.7475C40.6023 24.9821 40.2923 26.2167 39.9897 27.4531C39.9606 27.5734 39.9118 27.6035 39.7943 27.6016C39.3311 27.595 38.8679 27.6016 38.4047 27.5978C37.7235 27.5931 37.3101 27.0801 37.4633 26.4196C37.5713 25.9527 37.6775 25.4838 37.8166 25.0263C38.0016 24.4174 38.5043 24.066 39.1432 24.0613C39.4749 24.0595 39.8056 24.0613 40.1504 24.0613H40.1513ZM40.047 24.4729C39.7595 24.4729 39.4908 24.4682 39.2231 24.4738C38.8914 24.4804 38.618 24.6796 38.5062 24.9915C38.4714 25.0883 38.4489 25.1888 38.4244 25.2884C38.3192 25.7037 38.214 26.118 38.1116 26.5342C38.0054 26.9664 38.1736 27.1854 38.6152 27.1882C38.8322 27.1891 39.0502 27.1938 39.2663 27.1844C39.3114 27.1825 39.3819 27.1318 39.3922 27.0914C39.612 26.2289 39.8253 25.3645 40.047 24.4747V24.4729Z" fill="#F0F0F2"/>
<path d="M49.1137 24.0614C49.218 23.6461 49.3214 23.2478 49.4144 22.8485C49.4369 22.7517 49.4726 22.716 49.5722 22.7197C49.7489 22.7273 49.9255 22.7216 50.1266 22.7216C50.0504 23.0298 49.979 23.3211 49.9067 23.6114C49.5872 24.891 49.2659 26.1688 48.9521 27.4494C48.923 27.5678 48.8788 27.6026 48.7595 27.6007C48.2963 27.5932 47.8331 27.6007 47.3699 27.597C46.6793 27.5923 46.2725 27.0811 46.4294 26.4047C46.5375 25.9377 46.6446 25.4689 46.7836 25.0113C46.9621 24.4232 47.4704 24.0671 48.0868 24.0614C48.4241 24.0586 48.7604 24.0614 49.1128 24.0614H49.1137ZM49.0076 24.4852C48.9747 24.4786 48.9578 24.4729 48.9408 24.4729C48.689 24.4729 48.4372 24.4682 48.1864 24.4729C47.8547 24.4805 47.5822 24.6787 47.4704 24.9906C47.4357 25.0874 47.4131 25.1879 47.3887 25.2875C47.2835 25.7028 47.1782 26.1172 47.0758 26.5334C46.9697 26.9656 47.1388 27.1836 47.5794 27.1864C47.7965 27.1873 48.0144 27.192 48.2305 27.1826C48.2756 27.1807 48.3461 27.13 48.3564 27.0887C48.5763 26.2262 48.7896 25.3618 49.0076 24.4852Z" fill="#F0F0F2"/>
<path d="M57.5978 27.5884C57.4607 27.5884 57.3216 27.6053 57.1873 27.5856C56.647 27.5066 56.3022 27.0481 56.4093 26.5107C56.5089 26.0127 56.631 25.5185 56.7776 25.0328C56.9618 24.4211 57.4663 24.0679 58.1024 24.0622C58.3025 24.0604 58.5045 24.05 58.7028 24.0698C59.274 24.128 59.6329 24.6222 59.5108 25.2C59.414 25.6576 59.3022 26.1133 59.1688 26.5624C58.9649 27.2492 58.4726 27.5978 57.7529 27.5987C57.7012 27.5987 57.6495 27.5987 57.5988 27.5987V27.5893L57.5978 27.5884ZM57.6166 27.1985C58.1249 27.1881 58.3739 26.9974 58.5017 26.507C58.6107 26.087 58.7178 25.667 58.8202 25.2451C58.8503 25.1183 58.8719 24.9877 58.8747 24.8571C58.8794 24.7002 58.7967 24.5696 58.6501 24.5236C58.2367 24.3939 57.6317 24.4362 57.4607 25.0319C57.3113 25.5524 57.1882 26.0813 57.0576 26.6075C57.0426 26.6676 57.0444 26.7324 57.0473 26.7954C57.0557 26.9824 57.1497 27.1064 57.331 27.1571C57.4231 27.1825 57.5217 27.1853 57.6166 27.1985Z" fill="#F0F0F2"/>
<path d="M60.7895 24.0651C61.3598 24.0651 61.915 24.0444 62.4684 24.0707C63.0604 24.0989 63.4277 24.6279 63.2858 25.233C63.1026 26.0175 62.8997 26.7973 62.7033 27.5884H62.0222C62.133 27.1402 62.242 26.6968 62.3519 26.2542C62.4421 25.8878 62.538 25.5233 62.6235 25.1559C62.7268 24.7134 62.5323 24.4729 62.0785 24.4729C61.8897 24.4729 61.7008 24.4794 61.512 24.47C61.3992 24.4644 61.3579 24.5029 61.3306 24.6147C61.0986 25.5637 60.859 26.5107 60.6222 27.4587C60.6109 27.5029 60.5969 27.5461 60.5828 27.5931H59.9072C60.2022 26.4111 60.4954 25.2395 60.7885 24.0651H60.7895Z" fill="#F0F0F2"/>
<path d="M44.2168 22.7299H46.5215C46.4876 22.8671 46.4566 22.993 46.4219 23.1302H44.7983C44.6461 23.739 44.4967 24.3366 44.3436 24.951H45.4316C45.3987 25.0957 45.3705 25.2216 45.3395 25.3607H44.2478C44.0956 25.9686 43.9471 26.5652 43.793 27.1806H45.4147C45.378 27.3309 45.3461 27.4606 45.3132 27.5912H43.0057C43.4106 25.9648 43.8137 24.3488 44.2177 22.729L44.2168 22.7299Z" fill="#F0F0F2"/>
<path d="M36.6177 26.0176H34.4999C34.4482 26.2459 34.3797 26.4695 34.3505 26.6988C34.312 26.9985 34.4792 27.178 34.7855 27.1845C35.1341 27.193 35.4836 27.1873 35.8322 27.1873C35.8942 27.1873 35.9572 27.1873 36.0483 27.1873C36.0145 27.3273 35.9835 27.4514 35.9487 27.5979C35.8209 27.5979 35.6913 27.5979 35.5616 27.5979C35.2412 27.5979 34.9208 27.6045 34.6005 27.5951C34.0057 27.5791 33.5933 27.0859 33.7107 26.5034C33.8112 26.0054 33.9334 25.5112 34.0809 25.0254C34.2622 24.4241 34.7686 24.069 35.3934 24.0615C35.5532 24.0596 35.7138 24.0596 35.8735 24.0615C36.5162 24.0699 36.9193 24.5341 36.8169 25.1692C36.7718 25.4501 36.6881 25.7245 36.6177 26.0176ZM36.0417 25.6014C36.0943 25.3731 36.1582 25.1485 36.1939 24.9183C36.2193 24.7539 36.1385 24.6196 35.9872 24.5378C35.6631 24.3631 35.1181 24.4749 34.8945 24.768C34.7085 25.0113 34.6907 25.3092 34.6192 25.6004H36.0427L36.0417 25.6014Z" fill="#F0F0F2"/>
<path d="M19.4079 27.1883H21.0118C21.0146 27.2137 21.0211 27.2306 21.0183 27.2456C20.9688 27.4811 20.8223 27.5989 20.5786 27.5989H18.6281C19.0312 25.9706 19.4314 24.3574 19.8336 22.7339H20.5157C20.1474 24.2146 19.7809 25.6907 19.4079 27.1892V27.1883Z" fill="#F0F0F2"/>
<path d="M32.8162 23.1387C32.7411 23.4487 32.6706 23.7409 32.5954 24.0538H33.6797C33.644 24.2022 33.6148 24.3272 33.5801 24.4728C33.271 24.4728 32.9637 24.4803 32.6565 24.4691C32.5203 24.4644 32.4723 24.5123 32.4423 24.6401C32.291 25.279 32.1266 25.915 31.9716 26.5539C31.8701 26.9711 32.0373 27.1844 32.4611 27.1881C32.5982 27.1891 32.7354 27.1881 32.8961 27.1881C32.8792 27.2633 32.866 27.3262 32.851 27.3892C32.835 27.4559 32.8172 27.5207 32.7974 27.594C32.5485 27.594 32.3014 27.6128 32.058 27.5903C31.5112 27.5395 31.1786 27.0538 31.3148 26.4778C31.5694 25.3992 31.8438 24.3253 32.1153 23.2514C32.1266 23.2072 32.1886 23.1471 32.2299 23.1443C32.4169 23.133 32.6058 23.1396 32.8172 23.1396L32.8162 23.1387Z" fill="#F0F0F2"/>
<path d="M53.662 23.1387C53.5859 23.4526 53.5155 23.7447 53.4403 24.0567H54.5264C54.4907 24.2042 54.4597 24.3301 54.425 24.472C54.1074 24.472 53.7936 24.4767 53.4798 24.4701C53.3698 24.4682 53.3229 24.4983 53.2966 24.612C53.1434 25.2565 52.9771 25.8982 52.8202 26.5418C52.7131 26.9796 52.8785 27.1854 53.3294 27.1873C53.461 27.1873 53.5916 27.1873 53.7447 27.1873C53.71 27.331 53.679 27.4597 53.647 27.5922C53.3905 27.5922 53.1434 27.6119 52.9001 27.5885C52.3533 27.5349 52.0272 27.0491 52.1625 26.4723C52.3796 25.544 52.6173 24.6195 52.8465 23.6931C52.8832 23.5437 52.917 23.3924 52.963 23.2458C52.9762 23.2036 53.0279 23.1453 53.0645 23.1434C53.2571 23.1331 53.4507 23.1387 53.6639 23.1387H53.662Z" fill="#F0F0F2"/>
<path d="M22.3327 27.5921H21.6516C21.7408 27.2313 21.8282 26.879 21.9146 26.5267C22.1054 25.7562 22.2998 24.9858 22.4849 24.2144C22.5122 24.1007 22.5498 24.0491 22.6757 24.0585C22.8401 24.0707 23.0064 24.0613 23.2065 24.0613C22.9124 25.2479 22.623 26.4186 22.3318 27.5921H22.3327Z" fill="#F0F0F2"/>
<path d="M55.0948 27.5921H54.4136C54.5029 27.2313 54.5903 26.879 54.6767 26.5267C54.8646 25.7666 55.0572 25.0083 55.2357 24.2464C55.2724 24.0913 55.3363 24.0425 55.4894 24.0575C55.6407 24.0726 55.7948 24.0603 55.9695 24.0603C55.6745 25.2508 55.3851 26.4186 55.0939 27.5912L55.0948 27.5921Z" fill="#F0F0F2"/>
<path d="M29.9234 27.5904H29.2413C29.3653 27.0925 29.4865 26.6048 29.6077 26.1181C29.7674 25.4755 29.929 24.8328 30.084 24.1883C30.1075 24.0915 30.1432 24.0558 30.2428 24.0596C30.4195 24.0671 30.5961 24.0615 30.7981 24.0615C30.504 25.2472 30.2146 26.415 29.9234 27.5904Z" fill="#F0F0F2"/>
<path d="M50.7673 27.5931H50.0871C50.1651 27.2764 50.2402 26.9692 50.3163 26.662C50.5202 25.8417 50.7269 25.0215 50.9242 24.1994C50.9515 24.0848 50.9985 24.0528 51.1084 24.0585C51.2784 24.0669 51.4494 24.0604 51.643 24.0604C51.3489 25.248 51.0586 26.4167 50.7673 27.5931Z" fill="#F0F0F2"/>
<path d="M22.7302 23.2637C22.7753 23.0711 22.8147 22.9057 22.8551 22.731H23.5382C23.4959 22.8982 23.4574 23.0636 23.4104 23.227C23.4048 23.2458 23.354 23.2618 23.324 23.2618C23.136 23.2646 22.9481 23.2637 22.7302 23.2637Z" fill="#F0F0F2"/>
<path d="M55.6182 22.728H56.2984C56.2609 22.8859 56.2308 23.0371 56.1866 23.1828C56.1763 23.2175 56.1181 23.2589 56.0805 23.2598C55.8935 23.2673 55.7056 23.2636 55.4923 23.2636C55.5365 23.0757 55.5759 22.9065 55.6182 22.728Z" fill="#F0F0F2"/>
<path d="M51.1648 23.2638C51.2099 23.073 51.2484 22.9077 51.2898 22.7329H51.97C51.9333 22.8889 51.9014 23.043 51.8582 23.1942C51.8497 23.2243 51.7952 23.26 51.7614 23.2619C51.5735 23.2685 51.3856 23.2647 51.1657 23.2647L51.1648 23.2638Z" fill="#F0F0F2"/>
<path d="M30.4467 22.729H31.1241C31.0875 22.8878 31.0565 23.0409 31.0133 23.1903C31.0048 23.2213 30.9522 23.2599 30.9193 23.2608C30.7267 23.2674 30.535 23.2636 30.3199 23.2636C30.3659 23.0719 30.4063 22.9028 30.4477 22.729H30.4467Z" fill="#F0F0F2"/>
<path d="M87.7536 24.1515C87.6587 24.1468 87.5638 24.1477 87.4718 24.1486C87.4483 24.1486 87.4257 24.1486 87.4032 24.1486H87.2547C87.1861 24.1477 87.1175 24.1477 87.048 24.1477C86.5557 24.1477 86.2156 24.3995 86.0906 24.8533C85.9027 25.5373 85.7289 26.2335 85.572 26.9203C85.5241 27.1317 85.5513 27.3112 85.6519 27.4389C85.7561 27.5714 85.9347 27.6428 86.1677 27.6456C86.2588 27.6466 86.3499 27.6475 86.4411 27.6475C86.5322 27.6475 86.6309 27.6475 86.7229 27.6475H86.799C87.2791 27.6457 87.6164 27.3976 87.748 26.9485C87.841 26.6328 87.9199 26.3077 87.996 25.9939C88.0167 25.9084 88.0374 25.8229 88.059 25.7365C88.0759 25.6688 88.0928 25.6021 88.1097 25.5345C88.1717 25.2893 88.2356 25.0365 88.2788 24.7828C88.307 24.6156 88.2741 24.4662 88.1821 24.3506C88.0862 24.2313 87.934 24.1609 87.7527 24.1515H87.7536ZM87.2726 24.548C87.2857 24.548 87.2989 24.548 87.312 24.548C87.3412 24.548 87.3703 24.548 87.3994 24.5498C87.5065 24.5545 87.5883 24.5893 87.6362 24.6494C87.6832 24.7086 87.6972 24.7932 87.6775 24.8946C87.6521 25.0243 87.6183 25.1549 87.5854 25.2817C87.5723 25.3325 87.5591 25.3842 87.546 25.4349L87.4877 25.6679C87.3975 26.0287 87.3083 26.3885 87.2171 26.7493C87.1204 27.1327 86.97 27.2501 86.5726 27.2501H86.5689C86.3913 27.2623 86.271 27.2304 86.209 27.1561C86.1451 27.0791 86.1385 26.9466 86.1883 26.7625C86.2973 26.3603 86.3979 25.9488 86.4956 25.5505C86.5388 25.3738 86.582 25.1972 86.6262 25.0205C86.7107 24.6814 86.8817 24.5489 87.2341 24.5489H87.2716L87.2726 24.548Z" fill="#F0F0F2"/>
<path d="M90.5901 24.1515C90.4952 24.1468 90.4004 24.1477 90.3083 24.1486C90.2857 24.1486 90.2622 24.1486 90.2397 24.1486H90.0912C90.0227 24.1477 89.9541 24.1477 89.8845 24.1477C89.3922 24.1477 89.0521 24.3995 88.9281 24.8533C88.7402 25.5392 88.5654 26.2344 88.4094 26.9203C88.3615 27.1317 88.3888 27.3112 88.4893 27.4389C88.5936 27.5714 88.7721 27.6428 89.0051 27.6456C89.1038 27.6466 89.2024 27.6475 89.3001 27.6475C89.4195 27.6475 89.5369 27.6475 89.6496 27.6466C90.1157 27.6438 90.4558 27.3929 90.5836 26.9588C90.6775 26.6385 90.7574 26.3087 90.8354 25.9902C90.856 25.9056 90.8767 25.821 90.8974 25.7355C90.9143 25.6688 90.9303 25.6021 90.9472 25.5354C91.0092 25.2902 91.0731 25.0356 91.1172 24.7819C91.1454 24.6147 91.1125 24.4653 91.0195 24.3497C90.9237 24.2304 90.7715 24.1599 90.5901 24.1505V24.1515ZM90.1006 24.548C90.1157 24.548 90.1298 24.548 90.1448 24.548C90.1758 24.548 90.2068 24.548 90.2378 24.5498C90.344 24.5545 90.4257 24.5893 90.4736 24.6494C90.5206 24.7086 90.5347 24.7941 90.514 24.8956C90.4859 25.0375 90.4492 25.1812 90.4135 25.3203C90.4013 25.3663 90.39 25.4133 90.3778 25.4593C90.2698 25.8896 90.1617 26.3199 90.0537 26.7503C89.9569 27.1327 89.8056 27.2492 89.4082 27.2492H89.4044C89.2278 27.2614 89.1075 27.2294 89.0465 27.1552C88.9826 27.0772 88.976 26.9447 89.0258 26.7597C89.1348 26.3575 89.2353 25.9469 89.333 25.5495C89.3762 25.3719 89.4204 25.1944 89.4646 25.0177C89.5482 24.6842 89.7211 24.548 90.0621 24.547H90.1016L90.1006 24.548Z" fill="#F0F0F2"/>
<path d="M93.8542 24.3477C93.7565 24.2275 93.5996 24.157 93.4117 24.1504C93.3205 24.1467 93.2285 24.1476 93.1392 24.1485C93.1176 24.1485 93.095 24.1485 93.0734 24.1485H92.7305C92.225 24.1485 91.8915 24.3938 91.7637 24.856C91.5889 25.4902 91.4198 26.1629 91.246 26.9108C91.1962 27.125 91.2235 27.3073 91.3259 27.437C91.4311 27.5713 91.6106 27.6427 91.8445 27.6456C91.9375 27.6465 92.0305 27.6465 92.1236 27.6465C92.2354 27.6465 92.3472 27.6465 92.4571 27.6456H92.4768C92.955 27.6437 93.2905 27.3985 93.4201 26.955C93.5141 26.6365 93.5939 26.3095 93.671 25.9929C93.6917 25.9102 93.7114 25.8266 93.7321 25.7439C93.748 25.6772 93.7649 25.6114 93.7819 25.5447C93.8439 25.2986 93.9087 25.0449 93.9519 24.7903C93.982 24.6164 93.9472 24.4633 93.8533 24.3468L93.8542 24.3477ZM93.3572 24.826C93.3553 24.8758 93.3468 24.9321 93.329 25.0017C93.1758 25.6152 93.033 26.1846 92.8921 26.7426C92.7944 27.1307 92.6412 27.2491 92.2401 27.2491H92.2363C92.0634 27.2613 91.9441 27.2293 91.884 27.1551C91.8201 27.0781 91.8126 26.9475 91.8614 26.7661C91.9695 26.364 92.07 25.9534 92.1677 25.556C92.2119 25.3747 92.257 25.1933 92.3021 25.0129C92.3847 24.6822 92.5586 24.5469 92.9034 24.5469C92.9212 24.5469 92.9381 24.5469 92.9551 24.5469C93.0171 24.5469 93.0763 24.546 93.1326 24.5535C93.283 24.5751 93.3628 24.6719 93.3572 24.825V24.826Z" fill="#F0F0F2"/>
<path d="M66.236 24.1495C65.9814 24.1476 65.7221 24.1486 65.4712 24.1495H65.2457C65.2222 24.1495 65.1988 24.1523 65.1762 24.1552C65.1668 24.1561 65.1565 24.157 65.1471 24.158L65.1067 24.1617L64.2404 27.6409H64.3128C64.4368 27.6409 64.5589 27.6409 64.682 27.6428C64.8004 27.6428 64.9216 27.6446 65.0418 27.6446C65.2382 27.6446 65.4365 27.6428 65.6328 27.6353C65.7475 27.6306 65.879 27.5845 66.035 27.4943C66.3779 27.2951 66.4831 26.9541 66.5357 26.6797C66.6043 26.3246 66.5386 26.1122 66.2924 25.9309C66.2952 25.929 66.299 25.9281 66.3018 25.9262C66.3769 25.8896 66.454 25.851 66.5245 25.7994C66.7988 25.5992 66.8909 25.2986 66.9444 25.0299C66.9924 24.7894 66.9463 24.5667 66.8138 24.4041C66.6823 24.2425 66.4775 24.1533 66.236 24.1514V24.1495ZM65.7775 26.1047C65.8593 26.1113 65.9241 26.1423 65.9645 26.194C66.0077 26.2494 66.0218 26.3246 66.0058 26.4129C65.9776 26.5689 65.9401 26.722 65.8959 26.8676C65.8198 27.1157 65.6469 27.2435 65.3838 27.2482C65.2683 27.25 65.1527 27.2491 65.0306 27.2491C64.9977 27.2491 64.9648 27.2491 64.931 27.2491L65.2166 26.1019C65.2655 26.1019 65.3143 26.101 65.3632 26.1C65.5069 26.0972 65.6422 26.0953 65.7785 26.1057L65.7775 26.1047ZM65.8517 25.6885C65.7174 25.7007 65.5812 25.6979 65.4383 25.6951C65.3979 25.6951 65.3566 25.6932 65.3153 25.6932L65.5999 24.5526C65.6497 24.5526 65.6986 24.5516 65.7474 24.5507C65.8912 24.5479 66.0274 24.546 66.1637 24.5563C66.2454 24.5629 66.3102 24.5939 66.3506 24.6465C66.3929 24.702 66.407 24.7781 66.391 24.8664C66.36 25.0374 66.3196 25.1971 66.2717 25.3437C66.2041 25.5513 66.0584 25.6716 65.8527 25.6904L65.8517 25.6885Z" fill="#F0F0F2"/>
<path d="M76.0703 24.5451L76.1661 24.1543H74.4505L73.5795 27.6475H73.9187C74.0089 27.6475 74.0972 27.6475 74.1855 27.6475C74.5257 27.6475 74.8554 27.6475 75.1899 27.6457C75.2416 27.6457 75.3027 27.6034 75.3186 27.5564C75.3374 27.5019 75.3496 27.4465 75.3628 27.3863C75.3675 27.3629 75.3731 27.3375 75.3797 27.3121L75.3957 27.2426H74.2729L74.5595 26.0963H75.3168L75.4107 25.6942H74.6562L74.9437 24.5442H76.0712L76.0703 24.5451Z" fill="#F0F0F2"/>
<path d="M71.7427 24.8936C71.786 24.7282 71.7662 24.5666 71.6864 24.4379C71.6093 24.3139 71.4862 24.2303 71.3293 24.1964C71.132 24.1542 70.9235 24.1523 70.7402 24.1504C70.7346 24.1504 70.729 24.1504 70.7233 24.1504C70.1775 24.1504 69.8167 24.4247 69.6776 24.9434C69.5273 25.5052 69.3779 26.1103 69.221 26.7924C69.174 26.9972 69.2097 27.1974 69.3234 27.3571C69.4343 27.5149 69.6081 27.6136 69.811 27.6371C69.9087 27.6483 70.0083 27.654 70.1089 27.654C70.2094 27.654 70.3146 27.6483 70.418 27.6371C70.8614 27.5882 71.1565 27.3101 71.2485 26.8544L71.2626 26.7858H71.1931C71.1649 26.7858 71.1377 26.7858 71.1114 26.7858C71.055 26.7858 71.0024 26.7877 70.9507 26.784C70.8408 26.7755 70.7806 26.8187 70.7515 26.9268C70.7074 27.0893 70.5965 27.1927 70.4321 27.2255C70.3306 27.2462 70.2197 27.2462 70.1126 27.2472H70.0891C70.0891 27.2472 70.0863 27.2472 70.0854 27.2472C69.9501 27.2472 69.858 27.218 69.812 27.1588C69.765 27.0987 69.7575 26.9982 69.7913 26.8591C69.842 26.6515 69.8937 26.4438 69.9454 26.2362L70.0384 25.8641C70.1145 25.5588 70.1934 25.2431 70.2723 24.934C70.3287 24.7122 70.4631 24.5845 70.6717 24.5544C70.7816 24.5384 70.9056 24.5384 71.0625 24.5525C71.1396 24.56 71.1997 24.5892 71.2363 24.638C71.2758 24.6906 71.288 24.762 71.273 24.8466C71.2692 24.8682 71.2664 24.8898 71.2645 24.9142C71.2636 24.9255 71.2617 24.9387 71.2598 24.9528L71.2523 25.0167H71.3162C71.3453 25.0167 71.3744 25.0167 71.4026 25.0176C71.4759 25.0185 71.5454 25.0204 71.6159 25.0129C71.6732 25.0073 71.7305 24.9443 71.7437 24.8936H71.7427Z" fill="#F0F0F2"/>
<path d="M69.6927 24.2181L69.7021 24.1533H67.4293L67.3391 24.547H68.1828L67.4124 27.6475H67.4847C67.527 27.6475 67.5674 27.6475 67.6069 27.6475C67.6933 27.6466 67.776 27.6456 67.8559 27.6503C67.8615 27.6503 67.8671 27.6503 67.8718 27.6503C67.9874 27.6503 68.0212 27.577 68.0391 27.5047C68.1781 26.9363 68.3228 26.3584 68.4619 25.7994L68.7747 24.5479H69.3253C69.6241 24.5479 69.6485 24.5263 69.6927 24.2191V24.2181Z" fill="#F0F0F2"/>
<path d="M72.9416 24.1562H72.3515L71.4862 27.6476H72.9124C73.183 27.6476 73.2065 27.6307 73.2582 27.3845L73.2638 27.3582C73.2657 27.3488 73.2695 27.3347 73.2742 27.3187L73.2958 27.2455H72.1749L72.9425 24.1553L72.9416 24.1562Z" fill="#F0F0F2"/>
<path d="M84.1298 24.3505C84.034 24.2312 83.8809 24.1598 83.6986 24.1514C83.6046 24.1467 83.5088 24.1476 83.4167 24.1495C83.3932 24.1495 83.3707 24.1495 83.3472 24.1495H83.0043C82.4978 24.1495 82.1634 24.3938 82.0365 24.856C81.8467 25.5466 81.6729 26.2419 81.5179 26.923C81.47 27.1344 81.4982 27.313 81.5978 27.4398C81.702 27.5723 81.8815 27.6437 82.1154 27.6465C82.216 27.6474 82.3165 27.6484 82.4152 27.6484C82.5326 27.6484 82.6491 27.6484 82.76 27.6474C83.2251 27.6446 83.5652 27.3928 83.6929 26.9578C83.7869 26.6374 83.8668 26.3076 83.9447 25.9882C83.9654 25.9036 83.9861 25.8191 84.0068 25.7345C84.0237 25.6678 84.0406 25.6002 84.0575 25.5334C84.1195 25.2882 84.1834 25.0345 84.2266 24.7809C84.2548 24.6146 84.221 24.4652 84.1289 24.3505H84.1298ZM83.2053 24.5479C83.2204 24.5479 83.2363 24.5479 83.2523 24.5479C83.2833 24.5479 83.3134 24.5479 83.3444 24.5497C83.4524 24.5535 83.5351 24.5883 83.583 24.6484C83.6309 24.7085 83.645 24.7968 83.6244 24.903C83.6074 24.9913 83.584 25.0806 83.5624 25.167C83.5548 25.1971 83.5464 25.2281 83.5389 25.2582L83.4581 25.5832C83.3622 25.9675 83.2664 26.3509 83.1696 26.7342C83.0681 27.1344 82.9206 27.25 82.5119 27.25H82.5082C82.3362 27.2622 82.2188 27.2303 82.1577 27.157C82.0938 27.079 82.0863 26.9475 82.1352 26.7661C82.2432 26.3659 82.3428 25.9581 82.4405 25.5626C82.4856 25.3794 82.5307 25.1961 82.5768 25.0129C82.6576 24.6888 82.8351 24.5497 83.1677 24.5497H83.2053V24.5479Z" fill="#F0F0F2"/>
<path d="M79.309 24.1691C79.0403 24.1381 78.7565 24.1484 78.4888 24.1992C78.1073 24.2706 77.8348 24.575 77.8104 24.9583L77.8067 25.0185H77.8668C77.8921 25.0185 77.9185 25.0185 77.9438 25.0175C78.0011 25.0166 78.0556 25.0147 78.1092 25.0203C78.2445 25.0335 78.2868 24.9499 78.3074 24.8766C78.3553 24.7084 78.469 24.6032 78.6363 24.5712C78.7471 24.5496 78.8674 24.5496 78.983 24.5506H79.0159C79.1361 24.5506 79.2216 24.5797 79.2686 24.6361C79.3184 24.6962 79.3315 24.7939 79.3062 24.9245C79.2564 25.1876 79.1239 25.4084 78.9134 25.5812C78.7828 25.6874 78.6466 25.7908 78.5141 25.8913C78.3788 25.9937 78.2388 26.0999 78.1045 26.2098C77.8724 26.3996 77.6742 26.5781 77.5004 26.7547C77.3031 26.9549 77.1903 27.217 77.148 27.5778L77.1405 27.6417H79.2188L79.3118 27.2499H77.8217C77.8217 27.2499 77.8264 27.2414 77.8283 27.2367C77.8583 27.1775 77.8846 27.1259 77.9213 27.0902C78.1299 26.8853 78.3187 26.7153 78.4991 26.5678C78.6363 26.455 78.781 26.346 78.92 26.2399C79.06 26.1337 79.2056 26.0228 79.3447 25.9092C79.6313 25.6752 79.8098 25.3689 79.8737 24.9987C79.9112 24.7854 79.8652 24.574 79.7496 24.4181C79.6453 24.279 79.4884 24.1907 79.309 24.171V24.1691Z" fill="#F0F0F2"/>
<path d="M81.4559 24.1569C81.3083 24.14 81.1853 24.1438 81.0612 24.2199L80.646 24.4397C80.443 24.5196 80.4195 24.6859 80.397 24.8475L80.3857 24.9274H80.7409L80.0672 27.6436H80.6572L81.5197 24.1644L81.4559 24.1569Z" fill="#F0F0F2"/>
<path d="M84.2331 27.9339C84.3195 27.8654 84.3487 27.7263 84.4126 27.6023C84.3364 27.5938 84.2913 27.5891 84.235 27.5826C84.2857 27.3768 84.3346 27.1739 84.3881 26.9728C84.3938 26.9521 84.4313 26.9268 84.4548 26.9258C84.5892 26.9211 84.7235 26.9239 84.8748 26.9239C84.7649 27.2922 84.7395 27.6709 84.5469 27.9997" fill="#F0F0F2"/>
</svg>
