<svg width="32" height="33" viewBox="0 0 32 33" fill="none" xmlns="http://www.w3.org/2000/svg">
<path d="M31.5181 20.3706C29.3806 28.9416 20.6989 34.1585 12.1265 32.021C3.55704 29.8834 -1.65844 21.2018 0.479123 12.6308C2.61521 4.05842 11.2969 -1.15855 19.8663 0.979021C28.4387 3.11659 33.6542 11.7997 31.5166 20.3706H31.5181Z" fill="url(#paint0_linear_5623_13)"/>
<path d="M23.0534 14.2207C23.3723 12.092 21.7514 10.948 19.5341 10.1833L20.253 7.29873L18.4978 6.86177L17.7981 9.66954C17.336 9.5544 16.8622 9.44664 16.3913 9.33887L17.0969 6.51191L15.3417 6.07495L14.6227 8.95801C14.2404 8.87091 13.8654 8.78529 13.5023 8.69524V8.68638L11.0828 8.08261L10.6163 9.95741C10.6163 9.95741 11.9183 10.2556 11.8917 10.2748C12.6033 10.4519 12.7317 10.9229 12.7096 11.2963L11.8903 14.5824C11.939 14.5942 12.0025 14.6134 12.0733 14.6415C12.0143 14.6267 11.9523 14.6105 11.8873 14.5957L10.7388 19.1985C10.6517 19.4141 10.4318 19.7388 9.93427 19.6148C9.95198 19.6399 8.65881 19.296 8.65881 19.296L7.78784 21.3051L10.073 21.8749C10.4982 21.9812 10.9145 22.0934 11.3249 22.1982L10.5986 25.1152L12.3523 25.5522L13.0712 22.6662C13.5495 22.7961 14.0145 22.9157 14.4707 23.0293L13.7533 25.9021L15.5085 26.339L16.2348 23.4279C19.2285 23.9948 21.4798 23.766 22.426 21.0586C23.1892 18.8782 22.3877 17.6205 20.8125 16.8012C21.9595 16.5369 22.8231 15.7826 23.0534 14.2237V14.2207ZM19.0425 19.8451C18.5008 22.0255 14.8294 20.846 13.6396 20.5508L14.6035 16.686C15.7934 16.9827 19.6094 17.5717 19.0425 19.8451ZM19.5858 14.1897C19.0913 16.1723 16.0355 15.1655 15.0449 14.9175L15.9189 11.413C16.9094 11.6595 20.101 12.1215 19.5858 14.1897Z" fill="#F0F0F2"/>
<defs>
<linearGradient id="paint0_linear_5623_13" x1="-3.66267" y1="-48.8333" x2="41.8515" y2="-46.2644" gradientUnits="userSpaceOnUse">
<stop stop-color="#13161F"/>
<stop offset="0.265" stop-color="#525661"/>
<stop offset="0.615" stop-color="#1E212A"/>
<stop offset="1" stop-color="#494F5C"/>
</linearGradient>
</defs>
</svg>
