<svg width="162" height="4" viewBox="0 0 162 4" fill="none" xmlns="http://www.w3.org/2000/svg">
<path d="M0.414815 2C0.414815 2.87547 1.12453 3.58519 2 3.58519C2.87547 3.58519 3.58519 2.87547 3.58519 2C3.58519 1.12453 2.87547 0.414815 2 0.414815C1.12453 0.414815 0.414815 1.12453 0.414815 2ZM158.415 2C158.415 2.87547 159.125 3.58519 160 3.58519C160.875 3.58519 161.585 2.87547 161.585 2C161.585 1.12453 160.875 0.414815 160 0.414815C159.125 0.414815 158.415 1.12453 158.415 2ZM2 2.29722H160V1.70278H2V2.29722Z" fill="#F0F0F2"/>
</svg>
