<svg width="68" height="4" viewBox="0 0 68 4" fill="none" xmlns="http://www.w3.org/2000/svg">
<path d="M0.414815 2C0.414815 2.87547 1.12453 3.58519 2 3.58519C2.87547 3.58519 3.58519 2.87547 3.58519 2C3.58519 1.12453 2.87547 0.414815 2 0.414815C1.12453 0.414815 0.414815 1.12453 0.414815 2ZM64.4148 2C64.4148 2.87547 65.1245 3.58519 66 3.58519C66.8755 3.58519 67.5852 2.87547 67.5852 2C67.5852 1.12453 66.8755 0.414815 66 0.414815C65.1245 0.414815 64.4148 1.12453 64.4148 2ZM2 2.29722H66V1.70278H2V2.29722Z" fill="#F0F0F2"/>
</svg>
