<svg width="32" height="36" viewBox="0 0 32 36" fill="none" xmlns="http://www.w3.org/2000/svg">
<g clip-path="url(#clip0_5629_208)">
<path d="M24.0388 0.651611C24.5857 0.651611 25.1301 0.753 25.63 0.974504C25.9348 1.10947 26.2228 1.2819 26.4811 1.51955C27.1146 2.10205 27.4898 2.81306 27.5925 3.66227C27.6293 3.96385 27.6229 4.27124 27.6235 4.57541C27.6255 7.24057 27.6248 9.90637 27.6248 12.5715V12.9797C27.9664 12.9513 28.2661 12.8983 28.5644 12.9073C30.1234 12.9519 31.2645 14.0982 31.2741 15.7417C31.2955 19.5363 31.2909 23.331 31.2322 27.125C31.2218 27.8121 30.979 28.525 30.7155 29.1741C29.9522 31.0539 29.125 32.908 28.321 34.7717C28.1395 35.1921 27.8947 35.3749 27.5738 35.34C27.0727 35.2858 26.8305 34.8163 27.0513 34.2926C27.4414 33.3678 27.8444 32.4488 28.2422 31.5273C28.6484 30.5851 29.0494 29.6403 29.464 28.702C29.7791 27.9884 29.9303 27.2451 29.9296 26.4669C29.9277 22.9319 29.9309 19.3968 29.9277 15.8618C29.9264 14.8324 29.3058 14.1983 28.3804 14.2628C27.7294 14.3081 27.1934 14.8098 27.1114 15.4576C27.0901 15.6248 27.0849 15.7953 27.0843 15.9645C27.0823 17.7604 27.0707 19.5564 27.0914 21.3516C27.0972 21.8437 26.9429 22.1763 26.5218 22.4456C25.3252 23.2102 24.3481 24.1983 23.6061 25.4162C22.6891 26.9216 22.2674 28.5586 22.2667 30.3119C22.2667 31.6784 22.2674 33.0449 22.2661 34.412C22.2654 35.1295 22.0478 35.3484 21.3413 35.3484C17.1166 35.3484 12.8918 35.3503 8.6671 35.3484C6.62319 35.3471 5.16307 33.9167 5.12497 31.8754C5.11141 31.1644 5.11528 30.4521 5.1269 29.7411C5.13013 29.5228 5.05781 29.4285 4.84405 29.3665C3.97805 29.114 3.11076 28.8615 2.25897 28.5677C0.706497 28.031 0.118186 26.3371 0.990643 24.9609C1.09784 24.7917 1.24185 24.6452 1.38651 24.465C0.883443 23.9722 0.591548 23.3788 0.592839 22.6658C0.594131 21.9645 0.863423 21.3723 1.38199 20.8757C0.328713 19.6661 0.302235 18.4527 1.34712 17.2599C1.14757 16.9396 0.900233 16.6477 0.769139 16.3113C0.422352 15.4195 0.552155 14.5638 1.18955 13.8457C1.89668 13.0488 2.80143 12.8641 3.81208 13.1586C4.23184 13.2813 4.64902 13.4123 5.12238 13.5557C5.12238 13.3678 5.12238 13.2244 5.12238 13.0817C5.12238 10.1337 5.12626 7.18632 5.12045 4.23831C5.11786 3.0436 5.52406 2.02843 6.51341 1.34389C6.65677 1.24444 6.81176 1.16178 6.97256 1.08816C7.61576 0.793684 8.31903 0.652903 9.02681 0.652903C14.031 0.652903 19.0358 0.652903 24.04 0.652903L24.0388 0.651611ZM26.2848 4.31064C26.2525 4.02714 26.2532 3.77722 26.1918 3.54344C25.9374 2.56637 25.1605 2.00776 24.0704 2.00776C18.9771 2.00647 13.8838 2.00712 8.79045 2.00776C7.2961 2.00776 6.47918 2.81564 6.47789 4.3016C6.47595 7.40654 6.48047 10.5121 6.47143 13.6171C6.47079 13.8864 6.54376 14.0007 6.81047 14.0872C8.05877 14.4927 8.73685 15.5803 8.4682 16.8473C8.36552 17.3316 8.05619 17.7721 7.825 18.2661C8.81047 19.3103 8.78464 20.7717 7.7404 21.8386C8.26284 22.3248 8.53343 22.9332 8.53407 23.6422C8.53407 24.3474 8.24282 24.9454 7.72942 25.433C7.82823 25.5441 7.90637 25.6255 7.97676 25.7126C8.3991 26.2377 8.5993 26.8331 8.50953 27.5073C8.36423 28.5961 7.73911 29.2722 6.69939 29.5951C6.60769 29.6235 6.51341 29.7572 6.48758 29.8586C6.45141 30.0019 6.47853 30.1615 6.47853 30.3171H20.9002C20.9086 30.166 20.9183 30.0317 20.9241 29.8967C21.0662 26.3378 22.6167 23.5486 25.5034 21.4808C25.6216 21.3962 25.7159 21.1928 25.7172 21.0436C25.732 19.3271 25.7281 17.6112 25.7262 15.8947C25.7262 15.3219 25.8218 14.7775 26.1072 14.2674C26.2008 14.1001 26.2616 13.8902 26.2622 13.6997C26.2719 11.1476 26.2693 8.59607 26.268 6.04393C26.268 5.9251 26.2557 5.80692 26.248 5.66808H25.8108C20.8757 5.66808 15.9399 5.66808 11.0049 5.66808C10.3675 5.66808 10.0304 5.42591 10.0413 4.97709C10.0517 4.53924 10.3771 4.31322 10.9984 4.31322C15.9451 4.31322 20.8918 4.31322 25.8379 4.31322C25.9709 4.31322 26.1033 4.31322 26.2848 4.31322V4.31064ZM20.8905 31.7165H6.50049C6.40492 33.0481 7.30837 33.9903 8.66646 33.9916C12.6316 33.9942 16.5967 33.9929 20.5612 33.9929H20.8905V31.7172V31.7165ZM6.03617 21.0507C6.63029 21.0559 7.0591 20.7078 7.16307 20.208C7.26639 19.7088 6.98741 19.1947 6.44689 19.0165C5.38845 18.6678 4.32484 18.3307 3.2496 18.0368C2.47337 17.8244 1.82306 18.4727 1.97288 19.2632C2.06136 19.7281 2.39523 19.9613 2.81757 20.0924C3.77463 20.3888 4.73297 20.6826 5.69197 20.9739C5.83081 21.0158 5.97611 21.0384 6.03617 21.0514V21.0507ZM1.94641 22.6419C1.94382 23.1392 2.21957 23.5118 2.74912 23.6855C3.30514 23.8683 3.86762 24.0317 4.42752 24.2041C4.89055 24.3462 5.3497 24.5031 5.81725 24.6264C6.41073 24.7821 6.94285 24.5005 7.12432 23.9619C7.30643 23.4227 7.04618 22.8822 6.4837 22.6458C6.34938 22.589 6.20795 22.5489 6.06781 22.507C5.0972 22.2164 4.13368 21.8986 3.15274 21.6487C2.5302 21.4898 1.94964 22.0078 1.94641 22.6426V22.6419ZM3.07718 25.2406C2.49855 25.238 2.06136 25.5848 1.96901 26.053C1.86633 26.5761 2.09881 27.072 2.62061 27.2464C3.71974 27.6145 4.82855 27.9567 5.94576 28.2674C6.5457 28.4346 7.16371 27.9128 7.18244 27.2916C7.19859 26.7717 6.88925 26.3817 6.30159 26.1983C5.35616 25.9031 4.40879 25.6119 3.46078 25.3239C3.31095 25.2787 3.15403 25.2567 3.07782 25.2399L3.07718 25.2406ZM1.94705 15.4027C1.94382 15.8999 2.2157 16.2732 2.74977 16.4443C3.74686 16.7633 4.74847 17.0694 5.75203 17.3704C5.91024 17.4182 6.08783 17.4421 6.25057 17.4253C6.74912 17.3742 7.1269 16.9816 7.17792 16.496C7.23023 15.9968 6.93188 15.5486 6.39329 15.3697C5.77334 15.1644 5.14628 14.9823 4.51987 14.7956C4.05619 14.6574 3.59768 14.4889 3.12368 14.4062C2.48951 14.2951 1.95157 14.7801 1.9477 15.4027H1.94705Z" fill="#BD9F72"/>
<path d="M9.52339 17.9652C9.53114 17.0378 9.71583 16.1492 10.082 15.2987C10.2596 14.8867 10.5709 14.7201 10.9383 14.8273C11.3264 14.9403 11.5027 15.3316 11.3348 15.7921C11.0739 16.5076 10.9151 17.2341 10.8983 18.002C10.8408 20.6736 12.9893 23.1695 15.6487 23.4924C18.7949 23.8741 21.4472 21.8747 21.9431 18.7485C22.3132 16.4133 20.9344 13.9212 18.762 12.9577C17.3626 12.3371 15.9528 12.2771 14.5153 12.7963C14.3778 12.846 14.2383 12.8938 14.0962 12.9254C13.741 13.0042 13.4142 12.8324 13.3045 12.5186C13.1908 12.1938 13.3051 11.8179 13.6474 11.6952C14.2486 11.4795 14.864 11.2483 15.4917 11.1683C19.2089 10.6955 22.474 12.9965 23.2076 16.6639C24.0168 20.7117 21.1921 24.3546 17.3606 24.8376C13.4762 25.3278 10.1278 22.7317 9.57892 18.8421C9.53824 18.5522 9.54018 18.2571 9.52209 17.9639L9.52339 17.9652Z" fill="#BD9F72"/>
<path d="M12.6923 13.5783C12.6981 13.9425 12.4101 14.2499 12.0484 14.2641C11.6842 14.2783 11.36 13.9567 11.3613 13.5835C11.3633 13.2225 11.6655 12.9189 12.0252 12.917C12.3855 12.9151 12.6858 13.2134 12.6917 13.5783H12.6923Z" fill="#BD9F72"/>
<path d="M8.31577 5.66159C7.95349 5.66741 7.64868 5.36582 7.64416 4.99773C7.63964 4.62769 7.93218 4.32223 8.29705 4.31578C8.65739 4.30932 8.96479 4.61284 8.96995 4.979C8.97447 5.34516 8.67741 5.65514 8.31577 5.66095V5.66159Z" fill="#BD9F72"/>
<path d="M13.8114 17.4388L15.9031 19.5299L19.3503 16.0833" stroke="#BD9F72" stroke-width="1.2" stroke-miterlimit="10" stroke-linecap="round"/>
</g>
<defs>
<clipPath id="clip0_5629_208">
<rect width="31.8618" height="36" fill="white"/>
</clipPath>
</defs>
</svg>
