<svg width="32" height="32" viewBox="0 0 32 32" fill="none" xmlns="http://www.w3.org/2000/svg">
<path d="M8.00002 9.33325H14.6667C15.0203 9.33325 15.3594 9.47373 15.6095 9.72378C15.8595 9.97382 16 10.313 16 10.6666C16 11.0202 15.8595 11.3593 15.6095 11.6094C15.3594 11.8594 15.0203 11.9999 14.6667 11.9999H8.00002C7.6464 11.9999 7.30726 11.8594 7.05721 11.6094C6.80716 11.3593 6.66669 11.0202 6.66669 10.6666C6.66669 10.313 6.80716 9.97382 7.05721 9.72378C7.30726 9.47373 7.6464 9.33325 8.00002 9.33325ZM17.3334 19.9999H24C24.3536 19.9999 24.6928 20.1404 24.9428 20.3904C25.1929 20.6405 25.3334 20.9796 25.3334 21.3333C25.3334 21.6869 25.1929 22.026 24.9428 22.2761C24.6928 22.5261 24.3536 22.6666 24 22.6666H17.3334C16.9797 22.6666 16.6406 22.5261 16.3905 22.2761C16.1405 22.026 16 21.6869 16 21.3333C16 20.9796 16.1405 20.6405 16.3905 20.3904C16.6406 20.1404 16.9797 19.9999 17.3334 19.9999ZM8.00002 14.6666H24C24.3536 14.6666 24.6928 14.8071 24.9428 15.0571C25.1929 15.3072 25.3334 15.6463 25.3334 15.9999C25.3334 16.3535 25.1929 16.6927 24.9428 16.9427C24.6928 17.1928 24.3536 17.3333 24 17.3333H8.00002C7.6464 17.3333 7.30726 17.1928 7.05721 16.9427C6.80716 16.6927 6.66669 16.3535 6.66669 15.9999C6.66669 15.6463 6.80716 15.3072 7.05721 15.0571C7.30726 14.8071 7.6464 14.6666 8.00002 14.6666Z" fill="#B6BDC7"/>
</svg>
