<svg width="20" height="20" viewBox="0 0 20 20" fill="none" xmlns="http://www.w3.org/2000/svg">
<g clip-path="url(#clip0_5503_139)">
<path d="M11.8223 8.57886C10.9663 8.57886 10.5841 9.04933 10.3702 9.37963V8.69325H8.75818C8.77912 9.14762 8.75818 13.5434 8.75818 13.5434H10.3702V10.8338C10.3702 10.6891 10.3795 10.5437 10.423 10.4402C10.5398 10.1502 10.8048 9.85011 11.2503 9.85011C11.8336 9.85011 12.0668 10.2948 12.0668 10.9473V13.5422H13.6788L13.6792 10.7608C13.6784 9.27208 12.8829 8.57886 11.8223 8.57886ZM10.369 9.39655H10.3589C10.3621 9.39091 10.367 9.38567 10.369 9.38003V9.39655Z" fill="#B6BDC7"/>
<path d="M6.25275 8.69336H7.86477V13.5435H6.25275V8.69336Z" fill="#B6BDC7"/>
<path d="M10 0C4.48602 0 0 4.48602 0 10C0 15.5136 4.48602 20 10 20C15.5136 20 20 15.5136 20 10C20 4.48602 15.5144 0 10 0ZM15.3029 14.5231C15.3029 14.9484 14.9501 15.2924 14.5138 15.2924H5.41811C4.98308 15.2924 4.62982 14.9484 4.62982 14.5231V5.32144C4.62982 4.89648 4.98308 4.55208 5.41811 4.55208H14.5138C14.9496 4.55208 15.3029 4.89688 15.3029 5.32144V14.5231Z" fill="#B6BDC7"/>
<path d="M7.0696 6.35498C6.51857 6.35498 6.15765 6.7167 6.15765 7.19281C6.15765 7.65805 6.50769 8.03064 7.04825 8.03064H7.05873C7.62104 8.03064 7.97108 7.65805 7.97108 7.19281C7.9602 6.7171 7.62144 6.35498 7.0696 6.35498Z" fill="#B6BDC7"/>
</g>
<defs>
<clipPath id="clip0_5503_139">
<rect width="20" height="20" fill="white"/>
</clipPath>
</defs>
</svg>
