<svg width="32" height="30" viewBox="0 0 32 30" fill="none" xmlns="http://www.w3.org/2000/svg">
<g clip-path="url(#clip0_5623_56)">
<path d="M30.9192 0.333252L17.4934 10.2674L19.99 4.41291L30.9192 0.333252Z" fill="#E17726"/>
<path d="M1.11213 0.345215L12.012 4.41387L14.3827 10.3451L1.11213 0.345215ZM25.5161 21.4606L31.4501 21.5735L29.3763 28.6186L22.1355 26.6251L25.5161 21.4606ZM6.48356 21.4606L9.85163 26.6251L2.62305 28.6188L0.561768 21.5735L6.48356 21.4606Z" fill="#E27625"/>
<path d="M14.0604 8.83422L14.3028 16.6666L7.04639 16.3365L9.11048 13.2225L9.13663 13.1925L14.0604 8.83422ZM17.8643 8.74683L22.8632 13.1928L22.8891 13.2226L24.9532 16.3366L17.6983 16.6666L17.8643 8.74683ZM10.0642 21.4832L14.0264 24.5704L9.42373 26.7926L10.0642 21.4832ZM21.9364 21.4827L22.5635 26.7927L17.9737 24.5702L21.9364 21.4827Z" fill="#E27625"/>
<path d="M18.075 24.2793L22.7326 26.5345L18.4002 28.5935L18.4451 27.2327L18.075 24.2793ZM13.9235 24.2803L13.568 27.2104L13.5972 28.5919L9.25464 26.5345L13.9235 24.2803Z" fill="#D5BFB2"/>
<path d="M12.5786 17.6887L13.7957 20.2466L9.65198 19.0327L12.5786 17.6887ZM19.4212 17.689L22.3616 19.0327L18.2044 20.2462L19.4212 17.689Z" fill="#233447"/>
<path d="M10.3808 21.4571L9.711 26.962L6.12097 21.5775L10.3808 21.4571ZM21.6191 21.4572L25.879 21.5775L22.2756 26.9622L21.6191 21.4572ZM25.058 16.0251L21.9578 19.1847L19.5675 18.0924L18.4231 20.4982L17.6729 16.3611L25.058 16.0251ZM6.9401 16.0251L14.3266 16.3611L13.5763 20.4982L12.4317 18.0928L10.0541 19.1848L6.9401 16.0251Z" fill="#CC6228"/>
<path d="M6.73132 15.3767L10.2389 18.936L10.3603 22.4497L6.73132 15.3767ZM25.2721 15.3704L21.6364 22.456L21.7733 18.936L25.2721 15.3704ZM14.1552 15.5935L14.2964 16.4821L14.6452 18.6957L14.4209 25.4943L13.3607 20.0328L13.3603 19.9763L14.1552 15.5935ZM17.8428 15.5812L18.6398 19.9763L18.6394 20.0328L17.5765 25.508L17.5344 24.1385L17.3686 18.6553L17.8428 15.5812Z" fill="#E27525"/>
<path d="M22.0851 18.7944L21.9664 21.8473L18.2662 24.7302L17.5182 24.2017L18.3567 19.8829L22.0851 18.7944ZM9.92749 18.7944L13.6429 19.8829L14.4814 24.2017L13.7334 24.7302L10.0331 21.8471L9.92749 18.7944Z" fill="#F5841F"/>
<path d="M8.54663 25.8604L13.2805 28.1034L13.2605 27.1455L13.6566 26.7978H18.3419L18.7523 27.1443L18.722 28.1014L23.426 25.866L21.137 27.7575L18.3693 29.6584H13.6186L10.8527 27.7497L8.54663 25.8604Z" fill="#C0AC9D"/>
<path d="M17.736 23.9807L18.4053 24.4536L18.7975 27.583L18.2299 27.1037H13.7717L13.2148 27.5926L13.5942 24.4538L14.2638 23.9807H17.736Z" fill="#161616"/>
<path d="M30.0327 0.608398L31.6444 5.44314L30.6379 10.3317L31.3546 10.8845L30.3847 11.6244L31.1137 12.1874L30.1485 13.0663L30.741 13.4954L29.1685 15.3319L22.7188 13.454L22.663 13.424L18.0152 9.50337L30.0327 0.608398ZM1.96709 0.608398L13.9847 9.50337L9.33685 13.424L9.28099 13.454L2.83132 15.3319L1.25881 13.4954L1.85086 13.0666L0.88628 12.1874L1.61375 11.625L0.629369 10.883L1.37309 10.3298L0.355469 5.44339L1.96709 0.608398Z" fill="#763E1A"/>
<path d="M22.4034 13.0432L29.2372 15.0329L31.4574 21.8756H25.6L21.5642 21.9265L24.4992 16.2055L22.4034 13.0432ZM9.59644 13.0432L7.50021 16.2055L10.4356 21.9265L6.40168 21.8756H0.55481L2.76251 15.033L9.59644 13.0432ZM20.3246 4.38037L18.4132 9.54291L18.0075 16.5169L17.8523 18.7029L17.84 24.2869H14.1597L14.1478 18.7134L13.992 16.5151L13.5863 9.54291L11.6751 4.38037H20.3246Z" fill="#F5841F"/>
</g>
<defs>
<clipPath id="clip0_5623_56">
<rect width="31.2889" height="29.3333" fill="white" transform="translate(0.355591 0.333252)"/>
</clipPath>
</defs>
</svg>
