<svg width="32" height="32" viewBox="0 0 32 32" fill="none" xmlns="http://www.w3.org/2000/svg">
<path d="M7.43999 7.44012C7.72124 7.15922 8.10249 7.00144 8.49999 7.00144C8.89749 7.00144 9.27874 7.15922 9.55999 7.44012L16 13.8801L22.44 7.44012C22.6233 7.24267 22.8565 7.09832 23.115 7.0223C23.3735 6.94627 23.6478 6.94137 23.9088 7.00811C24.1698 7.07486 24.4081 7.21078 24.5983 7.40156C24.7886 7.59233 24.9239 7.8309 24.99 8.09212C25.0568 8.35287 25.0522 8.62681 24.9765 8.88514C24.9008 9.14347 24.7569 9.37663 24.56 9.56012L18.12 16.0001L24.56 22.4401C24.7574 22.6235 24.9018 22.8567 24.9778 23.1152C25.0538 23.3737 25.0587 23.6479 24.992 23.9089C24.9252 24.17 24.7893 24.4082 24.5986 24.5985C24.4078 24.7887 24.1692 24.924 23.908 24.9901C23.6472 25.0569 23.3733 25.0523 23.115 24.9766C22.8566 24.901 22.6235 24.7571 22.44 24.5601L16 18.1201L9.55999 24.5601C9.27547 24.8249 8.89937 24.9691 8.51073 24.9624C8.1221 24.9557 7.7512 24.7986 7.47599 24.5241C7.20151 24.2489 7.0444 23.878 7.03768 23.4894C7.03097 23.1007 7.17518 22.7246 7.43999 22.4401L13.88 16.0001L7.43999 9.56012C7.15909 9.27887 7.00131 8.89762 7.00131 8.50012C7.00131 8.10261 7.15909 7.72137 7.43999 7.44012Z" fill="#B6BDC7"/>
</svg>
