<svg width="20" height="20" viewBox="0 0 20 20" fill="none" xmlns="http://www.w3.org/2000/svg">
<g clip-path="url(#clip0_5503_174)">
<path fill-rule="evenodd" clip-rule="evenodd" d="M10 20C15.5228 20 20 15.5228 20 10C20 4.47715 15.5228 0 10 0C4.47715 0 0 4.47715 0 10C0 15.5228 4.47715 20 10 20Z" fill="#B6BDC7"/>
<path fill-rule="evenodd" clip-rule="evenodd" d="M10.9198 13.0281C13.1217 13.0281 14.6154 10.979 14.6154 8.23605C14.6154 6.16258 12.8945 4.23071 10.2796 4.23071C7.02549 4.23071 5.38464 6.61245 5.38464 8.59853C5.38464 9.80112 5.83032 10.871 6.78724 11.2698C6.94401 11.3351 7.08449 11.2719 7.13014 11.0948C7.16135 10.972 7.23684 10.6624 7.26963 10.5336C7.31557 10.3582 7.2979 10.2968 7.17127 10.1439C6.89562 9.81134 6.7197 9.38172 6.7197 8.7725C6.7197 7.0057 8.01403 5.42399 10.0916 5.42399C11.9304 5.42399 12.9414 6.57096 12.9414 8.10346C12.9414 10.1194 12.0675 11.8209 10.7698 11.8209C10.053 11.8209 9.51715 11.216 9.68874 10.4742C9.8942 9.58846 10.2935 8.6322 10.2935 7.99282C10.2935 7.42079 9.99267 6.94306 9.3697 6.94306C8.63709 6.94306 8.04878 7.71693 8.04878 8.75306C8.04878 9.41298 8.26759 9.85945 8.26759 9.85945C8.26759 9.85945 7.51789 13.1017 7.38625 13.6694C7.26688 14.1863 7.24902 14.7544 7.2658 15.2345C7.31597 15.6653 7.73317 16.016 8.09511 15.5435C8.34956 15.1283 8.62315 14.604 8.7647 14.0784C8.84913 13.7675 9.2467 12.1566 9.2467 12.1566C9.48495 12.62 10.1805 13.0281 10.9198 13.0281Z" fill="#272A35"/>
</g>
<defs>
<clipPath id="clip0_5503_174">
<rect width="20" height="20" fill="white"/>
</clipPath>
</defs>
</svg>
