<svg width="36" height="36" viewBox="0 0 36 36" fill="none" xmlns="http://www.w3.org/2000/svg">
<path d="M34.9453 22.7139H28.1528V16.5251C28.1528 16.2533 27.9324 16.0329 27.6606 16.0329H8.33949C8.06766 16.0329 7.8473 16.2533 7.8473 16.5251V25.3147C7.8473 25.5865 8.06766 25.8069 8.33949 25.8069H15.1301V31.9956C15.1301 32.2674 15.3504 32.4878 15.6222 32.4878H34.9453C35.2171 32.4878 35.4375 32.2674 35.4375 31.9956V23.2061C35.4375 22.9342 35.2171 22.7139 34.9453 22.7139ZM8.83167 24.8225V17.0173H27.1683V22.7139H15.6223C15.3505 22.7139 15.1301 22.9343 15.1301 23.2061V24.8225H8.83167ZM34.4531 31.5033H16.1145V23.6982H34.4531V31.5033ZM15.2118 11.6023V8.99924L14.9714 9.27613C14.7932 9.4813 14.4823 9.50316 14.2771 9.32499C14.0719 9.14682 14.05 8.8359 14.2282 8.63066L15.3324 7.35906C15.467 7.20388 15.6836 7.14896 15.8763 7.22068C16.0687 7.29254 16.1962 7.47641 16.1962 7.68179V11.6023H16.8062C17.0781 11.6023 17.2984 11.8227 17.2984 12.0945C17.2984 12.3664 17.0781 12.5867 16.8062 12.5867H14.5998C14.328 12.5867 14.1076 12.3664 14.1076 12.0945C14.1076 11.8227 14.328 11.6023 14.5998 11.6023H15.2118V11.6023ZM20.9377 26.4966C20.9377 26.9244 20.7686 27.3135 20.4936 27.6005C20.7686 27.887 20.9377 28.2756 20.9377 28.703C20.9377 29.5832 20.2216 30.2993 19.3414 30.2993C18.4622 30.2993 17.747 29.5831 17.747 28.703C17.747 28.4311 17.9674 28.2108 18.2392 28.2108C18.511 28.2108 18.7314 28.4311 18.7314 28.703C18.7314 29.0404 19.005 29.3149 19.3414 29.3149C19.6789 29.3149 19.9534 29.0404 19.9534 28.703C19.9534 28.3666 19.6789 28.0929 19.3414 28.0929C19.0696 28.0929 18.8492 27.8726 18.8492 27.6008C18.8492 27.3289 19.0696 27.1086 19.3414 27.1086C19.6789 27.1086 19.9534 26.8341 19.9534 26.4966C19.9534 26.1603 19.6789 25.8866 19.3414 25.8866C19.005 25.8866 18.7314 26.1603 18.7314 26.4966C18.7314 26.7684 18.511 26.9888 18.2392 26.9888C17.9674 26.9888 17.747 26.7684 17.747 26.4966C17.747 25.6175 18.4622 24.9022 19.3414 24.9022C20.2217 24.9022 20.9377 25.6175 20.9377 26.4966ZM12.1617 22.2986C12.0419 22.4047 11.9111 22.5205 11.7944 22.6341H13.1608C13.4326 22.6341 13.653 22.8545 13.653 23.1263C13.653 23.3981 13.4326 23.6185 13.1608 23.6185H10.9545C10.6826 23.6185 10.4623 23.3981 10.4623 23.1263C10.4623 22.4883 10.9708 22.0382 11.5092 21.5616C12.0792 21.0571 12.6686 20.5353 12.6686 19.8158C12.6686 19.4794 12.395 19.2057 12.0586 19.2057C11.7212 19.2057 11.4467 19.4794 11.4467 19.8158V20.0251C11.4467 20.2969 11.2263 20.5173 10.9545 20.5173C10.6826 20.5173 10.4623 20.2969 10.4623 20.0251V19.8158C10.4623 18.9366 11.1784 18.2214 12.0586 18.2214C12.9378 18.2214 13.653 18.9366 13.653 19.8158C13.653 20.9785 12.8261 21.7105 12.1617 22.2986ZM5.69257 15.8671C5.78222 16.0122 5.94063 16.1005 6.11121 16.1005H7.60205C7.77298 16.1005 7.9316 16.0119 8.02118 15.8664L8.43581 15.1929L9.54689 14.7327L10.3189 14.9154C10.4849 14.9544 10.6596 14.905 10.7803 14.7845L10.8714 14.6934H27.6605C27.9323 14.6934 28.1527 14.4731 28.1527 14.2012V5.41365C28.1527 5.14182 27.9323 4.92146 27.6605 4.92146H10.8731L10.7806 4.82879C10.6597 4.70757 10.4844 4.65779 10.318 4.6978L9.54633 4.88195L8.43609 4.4221L8.02146 3.74696C7.93195 3.6012 7.77312 3.51233 7.60205 3.51233H6.11121C5.94042 3.51233 5.78187 3.60085 5.69229 3.74619L5.27548 4.42196L4.16672 4.88188L3.39525 4.69773C3.22861 4.65779 3.0536 4.70757 2.93266 4.82872L1.87833 5.88509C1.75781 6.00582 1.70838 6.18034 1.74776 6.34642L1.93043 7.11662L1.47206 8.22713L0.797063 8.6417C0.651375 8.73113 0.5625 8.88997 0.5625 9.06104V10.5538C0.5625 10.7249 0.651375 10.8837 0.797133 10.9733L1.47206 11.3878L1.93043 12.4983L1.74776 13.2685C1.70838 13.4346 1.75795 13.6093 1.87868 13.7301L2.93309 14.7844C3.05374 14.9051 3.22805 14.9544 3.39441 14.9153L4.16637 14.7327L5.27583 15.1929L5.69257 15.8671ZM27.1683 13.709H11.8532C11.96 13.5892 12.0029 13.4248 11.9653 13.2675L11.7812 12.4981L12.2411 11.388L12.9162 10.9733C13.0619 10.8838 13.1508 10.725 13.1508 10.5539V9.06111C13.1508 8.89004 13.062 8.73127 12.9162 8.6417L12.2411 8.22699L11.7812 7.1169L11.9653 6.34747C12.003 6.19025 11.96 6.02572 11.8531 5.90598H27.1683V13.709ZM4.09451 13.7382L3.43491 13.8942L2.76891 13.2282L2.92479 12.5708C2.94863 12.4702 2.94019 12.3648 2.90081 12.2694L2.32088 10.8643C2.28122 10.7682 2.2121 10.687 2.12344 10.6327L1.54688 10.2785V9.33631L2.12358 8.98215C2.21217 8.92773 2.28122 8.84659 2.32095 8.75054L2.90088 7.34542C2.94026 7.25 2.9487 7.1446 2.92486 7.04406L2.76891 6.38635L3.43477 5.7193L4.09359 5.87652C4.19463 5.90077 4.30066 5.89227 4.39643 5.8524L5.79959 5.27042C5.89507 5.23084 5.97572 5.16214 6.02993 5.07411L6.38592 4.49677H7.3267L7.68087 5.07334C7.73515 5.16179 7.81608 5.23077 7.91191 5.27049L9.31704 5.85247C9.41281 5.89213 9.51877 5.90063 9.61967 5.87652L10.2785 5.7193L10.9439 6.38586L10.7867 7.04314C10.7625 7.14411 10.7709 7.25007 10.8107 7.34605L11.3927 8.75117C11.4323 8.84701 11.5013 8.92794 11.5898 8.98222L12.1663 9.33638V10.2786L11.5898 10.6327C11.5014 10.687 11.4324 10.7679 11.3927 10.8638L10.8107 12.2689C10.771 12.3648 10.7625 12.4708 10.7867 12.5718L10.9439 13.2287L10.2784 13.8943L9.61868 13.7382C9.51799 13.7145 9.41259 13.723 9.31704 13.7625L7.91191 14.3444C7.81622 14.384 7.73543 14.4529 7.68115 14.5411L7.32713 15.1162H6.38557L6.02965 14.5404C5.97544 14.4526 5.89486 14.3841 5.79959 14.3446L4.39643 13.7627C4.30081 13.723 4.19534 13.7145 4.09451 13.7382ZM10.7033 9.80642C10.7033 7.6865 8.97771 5.96181 6.85666 5.96181C4.73562 5.96181 3.01008 7.6865 3.01008 9.80642C3.01008 11.9275 4.73562 13.653 6.85666 13.653C8.97771 13.653 10.7033 11.9275 10.7033 9.80642ZM3.99445 9.80642C3.99445 8.22924 5.27843 6.94618 6.85666 6.94618C8.4349 6.94618 9.71888 8.22924 9.71888 9.80642C9.71888 11.3847 8.4349 12.6686 6.85666 12.6686C5.27843 12.6686 3.99445 11.3847 3.99445 9.80642ZM8.9692 9.80642C8.9692 8.64156 8.02146 7.69381 6.85659 7.69381C5.6918 7.69381 4.74406 8.64156 4.74406 9.80642C4.74406 10.9723 5.6918 11.9209 6.85659 11.9209C8.02153 11.9209 8.9692 10.9723 8.9692 9.80642ZM5.7285 9.80642C5.7285 9.1843 6.23454 8.67819 6.85666 8.67819C7.47879 8.67819 7.9849 9.1843 7.9849 9.80642C7.9849 10.4296 7.47879 10.9366 6.85666 10.9366C6.23454 10.9366 5.7285 10.4297 5.7285 9.80642ZM6.17491 20.9199C6.17491 21.1918 5.95456 21.4121 5.68273 21.4121H5.17437V21.9204C5.17437 22.1922 4.95401 22.4126 4.68218 22.4126C4.41035 22.4126 4.18999 22.1922 4.18999 21.9204V20.9199C4.18999 20.6481 4.41035 20.4278 4.68218 20.4278H5.68273C5.95456 20.4278 6.17491 20.6481 6.17491 20.9199ZM5.17437 24.5753C5.17437 24.8471 4.95401 25.0675 4.68218 25.0675C4.41035 25.0675 4.18999 24.8471 4.18999 24.5753V23.4611C4.18999 23.1893 4.41035 22.9689 4.68218 22.9689C4.95401 22.9689 5.17437 23.1893 5.17437 23.4611V24.5753ZM5.17437 26.1159V27.2301C5.17437 27.5019 4.95401 27.7223 4.68218 27.7223C4.41035 27.7223 4.18999 27.5019 4.18999 27.2301V26.1159C4.18999 25.8441 4.41035 25.6237 4.68218 25.6237C4.95401 25.6237 5.17437 25.8441 5.17437 26.1159ZM28.8783 9.78976C28.7987 9.61348 28.8297 9.40691 28.9576 9.26178L31.7678 6.07283C31.8613 5.9668 31.9958 5.90605 32.1371 5.90605H32.1372C32.2786 5.90605 32.4131 5.96687 32.5065 6.07297L35.3147 9.26192C35.4425 9.40705 35.4735 9.61363 35.3938 9.7899C35.3142 9.9661 35.1387 10.0794 34.9453 10.0794H33.7255V20.7466C33.7255 21.0184 33.5051 21.2387 33.2333 21.2387C32.9614 21.2387 32.7411 21.0184 32.7411 20.7466V9.58719C32.7411 9.31536 32.9614 9.095 33.2333 9.095H33.856L32.1369 7.14277L30.4166 9.095H31.0389C31.3107 9.095 31.5311 9.31536 31.5311 9.58719V20.7466C31.5311 21.0184 31.3107 21.2387 31.0389 21.2387C30.7671 21.2387 30.5467 21.0184 30.5467 20.7466V10.0794H29.3268C29.1334 10.0794 28.9579 9.9661 28.8783 9.78976ZM18.343 9.63296C18.343 9.36113 18.5633 9.14077 18.8352 9.14077H25.3465C25.6184 9.14077 25.8387 9.36113 25.8387 9.63296C25.8387 9.90479 25.6184 10.1251 25.3465 10.1251H18.8352C18.5633 10.1251 18.343 9.90486 18.343 9.63296ZM18.343 7.52035C18.343 7.24852 18.5633 7.02817 18.8352 7.02817H21.9703C22.2422 7.02817 22.4625 7.24852 22.4625 7.52035C22.4625 7.79218 22.2422 8.01254 21.9703 8.01254H18.8352C18.5633 8.01254 18.343 7.79218 18.343 7.52035ZM18.343 12.0945C18.343 11.8226 18.5633 11.6023 18.8352 11.6023H25.3465C25.6184 11.6023 25.8387 11.8226 25.8387 12.0945C25.8387 12.3663 25.6184 12.5866 25.3465 12.5866H18.8352C18.5633 12.5866 18.343 12.3663 18.343 12.0945ZM15.8018 20.7466C15.8018 20.4747 16.0221 20.2544 16.2939 20.2544H25.3465C25.6184 20.2544 25.8387 20.4747 25.8387 20.7466C25.8387 21.0184 25.6184 21.2387 25.3465 21.2387H16.2939C16.0221 21.2387 15.8018 21.0184 15.8018 20.7466ZM15.8018 18.6318C15.8018 18.36 16.0221 18.1396 16.2939 18.1396H21.9703C22.2421 18.1396 22.4625 18.36 22.4625 18.6318C22.4625 18.9037 22.2421 19.124 21.9703 19.124H16.2939C16.0221 19.124 15.8018 18.9037 15.8018 18.6318ZM23.5767 26.9353H32.6294C32.9012 26.9353 33.1216 27.1556 33.1216 27.4274C33.1216 27.6993 32.9012 27.9196 32.6294 27.9196H23.5767C23.3049 27.9196 23.0845 27.6993 23.0845 27.4274C23.0845 27.1556 23.3049 26.9353 23.5767 26.9353ZM23.5767 24.8225H29.2551C29.5269 24.8225 29.7473 25.0429 29.7473 25.3147C29.7473 25.5865 29.5269 25.8069 29.2551 25.8069H23.5767C23.3049 25.8069 23.0845 25.5865 23.0845 25.3147C23.0845 25.0429 23.3049 24.8225 23.5767 24.8225ZM33.1216 29.8869C33.1216 30.1587 32.9012 30.3791 32.6294 30.3791H23.5767C23.3049 30.3791 23.0845 30.1587 23.0845 29.8869C23.0845 29.6151 23.3049 29.3947 23.5767 29.3947H32.6294C32.9013 29.3947 33.1216 29.6151 33.1216 29.8869ZM6.17491 29.8869C6.17491 30.1587 5.95456 30.3791 5.68273 30.3791H4.68218C4.41035 30.3791 4.18999 30.1587 4.18999 29.8869V28.8864C4.18999 28.6145 4.41035 28.3942 4.68218 28.3942C4.95401 28.3942 5.17437 28.6145 5.17437 28.8864V29.3947H5.68273C5.95456 29.3947 6.17491 29.6151 6.17491 29.8869ZM11.7496 29.8871C11.7495 30.0285 11.6887 30.1631 11.5824 30.2565L10.3068 31.3786C10.2134 31.4608 10.0974 31.5012 9.98199 31.5012C9.84544 31.5012 9.70952 31.4447 9.61221 31.3341C9.43263 31.13 9.45253 30.819 9.65672 30.6395L9.95266 30.3791H7.22327C6.95145 30.3791 6.73109 30.1587 6.73109 29.8869C6.73109 29.6151 6.95145 29.3947 7.22327 29.3947H9.95435L9.6563 29.1321C9.45239 28.9523 9.4327 28.6414 9.61242 28.4374C9.79221 28.2335 10.1031 28.2139 10.3071 28.3935L11.5827 29.5176C11.6889 29.6111 11.7496 29.7457 11.7496 29.8871Z" fill="#E0BC85"/>
</svg>
