<svg width="30" height="30" viewBox="0 0 30 30" fill="none" xmlns="http://www.w3.org/2000/svg">
<g clip-path="url(#clip0_5623_77)">
<path d="M20.6517 17.3466L23.9737 20.6661L14.9867 29.6531L5.99972 20.6673L9.3205 17.3466L14.9867 23.0421L20.6517 17.3466ZM26.3192 11.6803L29.6668 14.9999L26.3485 18.3195L23.0277 14.9999L26.3192 11.6803ZM14.9867 11.6803L18.3063 14.9706L14.9855 18.2913L11.6659 14.9999L14.9867 11.6803ZM3.65305 11.6803L6.94572 14.9999L3.6555 18.2901L0.333496 14.9999L3.65305 11.6803ZM14.9879 0.3479L23.9713 9.30435L20.6505 12.6227L14.9879 6.95768L9.32172 12.6532L6.00094 9.33368L14.9879 0.3479Z" fill="#F3B61C"/>
</g>
<defs>
<clipPath id="clip0_5623_77">
<rect width="29.3333" height="29.3333" fill="white" transform="translate(0.333374 0.333252)"/>
</clipPath>
</defs>
</svg>
