<svg width="34" height="34" viewBox="0 0 34 34" fill="none" xmlns="http://www.w3.org/2000/svg">
<g clip-path="url(#clip0_5623_92)">
<path d="M7.47199 10.9755C12.7355 5.82491 21.266 5.82491 26.5281 10.9755L27.1614 11.5953C27.2239 11.6558 27.2736 11.7283 27.3076 11.8084C27.3415 11.8886 27.359 11.9747 27.359 12.0618C27.359 12.1488 27.3415 12.235 27.3076 12.3151C27.2736 12.3953 27.2239 12.4678 27.1614 12.5283L24.9955 14.6485C24.9643 14.6798 24.9272 14.7046 24.8863 14.7216C24.8455 14.7385 24.8017 14.7472 24.7575 14.7472C24.7133 14.7472 24.6695 14.7385 24.6287 14.7216C24.5879 14.7046 24.5508 14.6798 24.5195 14.6485L23.647 13.7961C19.9767 10.2024 14.0248 10.2024 10.3545 13.7961L9.42143 14.7103C9.35747 14.7724 9.27188 14.807 9.18279 14.807C9.0937 14.807 9.00811 14.7724 8.94415 14.7103L6.77825 12.5888C6.71542 12.5286 6.66542 12.4563 6.63127 12.3762C6.59711 12.2961 6.57951 12.21 6.57951 12.123C6.57951 12.0359 6.59711 11.9498 6.63127 11.8697C6.66542 11.7897 6.71542 11.7173 6.77825 11.6571L7.47199 10.9755ZM31.0078 15.3624L32.9358 17.25C32.9983 17.3105 33.048 17.383 33.082 17.4632C33.1159 17.5433 33.1334 17.6295 33.1334 17.7165C33.1334 17.8036 33.1159 17.8897 33.082 17.9699C33.048 18.05 32.9983 18.1225 32.9358 18.183L24.2426 26.6947C24.1147 26.8183 23.9438 26.8874 23.766 26.8874C23.5881 26.8874 23.4172 26.8183 23.2894 26.6947L17.1211 20.6541C17.0893 20.6224 17.0463 20.6046 17.0014 20.6046C16.9565 20.6046 16.9135 20.6224 16.8818 20.6541L10.7121 26.6947C10.5842 26.8183 10.4133 26.8874 10.2355 26.8874C10.0576 26.8874 9.88675 26.8183 9.75889 26.6947L1.06436 18.183C1.00183 18.1225 0.952111 18.05 0.918154 17.9699C0.884198 17.8897 0.866699 17.8036 0.866699 17.7165C0.866699 17.6295 0.884198 17.5433 0.918154 17.4632C0.952111 17.383 1.00183 17.3105 1.06436 17.25L2.9923 15.3624C3.12016 15.2388 3.29105 15.1697 3.4689 15.1697C3.64676 15.1697 3.81765 15.2388 3.94551 15.3624L10.1152 21.403C10.1824 21.4675 10.2886 21.4675 10.3545 21.403L16.5241 15.3624C16.652 15.2388 16.8229 15.1697 17.0007 15.1697C17.1786 15.1697 17.3495 15.2388 17.4773 15.3624L23.647 21.403C23.7142 21.4675 23.8191 21.4675 23.8863 21.403L30.056 15.3624C30.1833 15.2382 30.3541 15.1687 30.5319 15.1687C30.7097 15.1687 30.8805 15.2382 31.0078 15.3624Z" fill="#B9A0EB"/>
</g>
<defs>
<clipPath id="clip0_5623_92">
<rect width="32.2667" height="32.2667" fill="white" transform="translate(0.866699 0.866699)"/>
</clipPath>
</defs>
</svg>
