<svg width="16" height="16" viewBox="0 0 16 16" fill="none" xmlns="http://www.w3.org/2000/svg">
<g clip-path="url(#clip0_5473_1192)">
<path d="M14.1911 2.84842C13.0409 1.44467 11.4353 0.465113 9.67015 0.0900502C9.59334 0.0737064 9.51327 0.0929252 9.45224 0.142394C9.39121 0.1918 9.35577 0.266113 9.35577 0.344644V2.96974C9.35577 3.11352 9.47231 3.23002 9.61606 3.23002C9.75981 3.23002 9.87634 3.11352 9.87634 2.96974V0.673331C11.402 1.06846 12.7817 1.94964 13.7885 3.17839C14.8788 4.50908 15.4793 6.19117 15.4793 7.91486C15.4793 9.56802 14.9506 11.135 13.9504 12.4463C13.8632 12.5606 13.8852 12.7239 13.9995 12.8111C14.0466 12.8471 14.1021 12.8645 14.1572 12.8645C14.2356 12.8645 14.3131 12.8292 14.3643 12.762C15.4343 11.3591 15.9998 9.68302 15.9998 7.91483C15.9998 6.07121 15.3574 4.27196 14.1911 2.84842Z" fill="#E0BC85"/>
<path d="M13.6522 13.2084C13.5507 13.1066 13.3858 13.1065 13.2841 13.208C11.8692 14.6207 9.99688 15.3948 8.00097 15.3947C7.96516 15.3947 7.92903 15.3945 7.8931 15.394C5.9211 15.3665 4.06844 14.573 2.67647 13.1597C1.2846 11.7465 0.518942 9.88186 0.520504 7.90927C0.521754 6.33564 1.00613 4.83061 1.92129 3.55683C2.00516 3.44008 1.9785 3.27746 1.86175 3.19358C1.745 3.10968 1.58238 3.13636 1.4985 3.25311C0.519473 4.6158 0.00125397 6.22577 -5.85275e-05 7.90886C-0.00171478 10.0192 0.817129 12.0136 2.3056 13.525C3.79429 15.0365 5.77607 15.8851 7.88585 15.9145C7.92438 15.915 7.96275 15.9153 8.00119 15.9153C10.1357 15.9153 12.1386 15.0873 13.6518 13.5764C13.7536 13.4749 13.7538 13.3101 13.6522 13.2084Z" fill="#E0BC85"/>
<path d="M11.8087 6.63133C11.7062 6.45298 11.5222 6.34651 11.3164 6.34651H9.92375C9.89771 6.34651 9.87659 6.32539 9.87659 6.29936V4.01092C9.87659 3.86714 9.76006 3.75064 9.61631 3.75064C9.47256 3.75064 9.35603 3.86714 9.35603 4.01092V6.29936C9.35603 6.61239 9.61068 6.86708 9.92375 6.86708H11.3164C11.3345 6.86708 11.3483 6.87504 11.3573 6.89073C11.3663 6.90642 11.3663 6.92233 11.3572 6.93795L8.0409 12.6302C8.03184 12.6457 8.01812 12.6536 8.00012 12.6536C7.98215 12.6536 7.96843 12.6457 7.95937 12.6302L4.64303 6.93795C4.6339 6.92229 4.63387 6.90642 4.6429 6.89073C4.65193 6.87501 4.66565 6.86708 4.68378 6.86708H6.07643C6.38946 6.86708 6.64415 6.61242 6.64415 6.29936V0.34467C6.64415 0.266138 6.60868 0.191826 6.54768 0.14242C6.48668 0.0929509 6.40659 0.0736697 6.32978 0.0900759C4.7419 0.42742 3.3094 1.23295 2.18709 2.41951C2.08831 2.52395 2.0929 2.68867 2.19734 2.78748C2.30181 2.88626 2.46653 2.88164 2.56531 2.7772C3.54012 1.74661 4.76484 1.02351 6.12362 0.673138V6.29933C6.12362 6.32536 6.1025 6.34648 6.07646 6.34648H4.68381C4.47809 6.34648 4.29409 6.45295 4.19156 6.63129C4.08903 6.80967 4.08968 7.02223 4.19321 7.19998L7.50956 12.8922C7.61243 13.0687 7.79578 13.1741 8.00009 13.1741C8.2044 13.1741 8.38778 13.0687 8.49065 12.8922L11.807 7.19998C11.9106 7.02226 11.9112 6.80967 11.8087 6.63133Z" fill="#E0BC85"/>
</g>
<defs>
<clipPath id="clip0_5473_1192">
<rect width="16" height="16" fill="white"/>
</clipPath>
</defs>
</svg>
