<svg width="20" height="20" viewBox="0 0 20 20" fill="none" xmlns="http://www.w3.org/2000/svg">
<g clip-path="url(#clip0_5503_155)">
<path d="M6.27124 11.0131H6.91499V14.2662H7.53749V11.0131H8.18124V10.4606H6.27124V11.0131Z" fill="#B6BDC7"/>
<path d="M9.44811 13.5907C9.39561 13.6513 9.33936 13.7013 9.27624 13.7407C9.21436 13.7807 9.16249 13.8 9.12186 13.8C9.07061 13.8 9.03249 13.785 9.00811 13.7557C8.98561 13.7257 8.97436 13.6782 8.97436 13.6113V11.4575H8.42249V13.805C8.42249 13.9725 8.45561 14.0969 8.51936 14.1807C8.58499 14.265 8.67999 14.3057 8.80811 14.3057C8.91124 14.3057 9.01811 14.2763 9.12936 14.2163C9.23999 14.1575 9.34561 14.07 9.44811 13.9563V14.2644H9.99999V11.4563H9.44811V13.5907Z" fill="#B6BDC7"/>
<path d="M11.465 11.4237C11.3794 11.4237 11.2944 11.4456 11.21 11.4906C11.1269 11.5343 11.0487 11.5999 10.9731 11.6862V10.4606H10.415V14.2668H10.9731V14.0512C11.045 14.1374 11.1244 14.2006 11.2087 14.2412C11.2931 14.2824 11.3887 14.3018 11.4975 14.3018C11.6612 14.3018 11.7875 14.2499 11.8725 14.1437C11.9587 14.0374 12.0025 13.8856 12.0025 13.6868V12.1287C12.0025 11.8987 11.9575 11.7237 11.8637 11.6037C11.7731 11.4837 11.64 11.4237 11.465 11.4237ZM11.4356 13.6081C11.4356 13.6987 11.4187 13.7624 11.3869 13.8012C11.355 13.8412 11.3056 13.8606 11.2381 13.8606C11.1912 13.8606 11.1475 13.8506 11.105 13.8299C11.0625 13.8106 11.0187 13.7756 10.9737 13.7312V11.9818C11.0119 11.9431 11.0494 11.9143 11.0875 11.8962C11.1262 11.8774 11.1644 11.8693 11.2044 11.8693C11.2781 11.8693 11.3362 11.8937 11.3769 11.9424C11.4162 11.9912 11.4356 12.0637 11.4356 12.1581V13.6081Z" fill="#B6BDC7"/>
<path d="M9.92001 7.59939C10.0044 7.59939 10.0706 7.57564 10.1206 7.52939C10.17 7.48126 10.195 7.41564 10.195 7.33376V5.64751C10.195 5.58001 10.17 5.52501 10.1188 5.48314C10.0681 5.44189 10.0019 5.42126 9.92001 5.42126C9.84376 5.42126 9.78188 5.44126 9.73501 5.48314C9.68813 5.52501 9.66376 5.58001 9.66376 5.64751V7.33252C9.66376 7.41689 9.68688 7.48189 9.73063 7.52939C9.77438 7.57626 9.83688 7.59939 9.92001 7.59939Z" fill="#B6BDC7"/>
<path d="M10 0C4.4775 0 0 4.47688 0 10C0 15.5231 4.4775 20 10 20C15.5225 20 20 15.5225 20 10C20 4.4775 15.5225 0 10 0ZM11.3325 4.96375H11.9531V7.335C11.9531 7.40812 11.9675 7.46125 11.9931 7.49375C12.0181 7.52688 12.0613 7.54313 12.1194 7.54313C12.1644 7.54313 12.2225 7.52125 12.2925 7.47813C12.3619 7.435 12.4263 7.37937 12.4838 7.31125V4.96375H13.1056V8.05688H12.4838V7.71563C12.37 7.84125 12.2513 7.93813 12.1263 8.00313C12.0025 8.06875 11.8825 8.10188 11.765 8.10188C11.6206 8.10188 11.5131 8.05562 11.44 7.96375C11.3675 7.87187 11.3312 7.73375 11.3312 7.54875V4.96375H11.3325ZM9.02375 5.67125C9.02375 5.43125 9.10688 5.24062 9.275 5.09875C9.44188 4.95687 9.6675 4.88562 9.94938 4.88562C10.2063 4.88562 10.4175 4.96063 10.5819 5.11063C10.7456 5.26 10.8281 5.45312 10.8281 5.68875V7.28688C10.8281 7.55125 10.7475 7.75875 10.5869 7.90937C10.4244 8.06 10.2037 8.135 9.92062 8.135C9.64937 8.135 9.43125 8.0575 9.2675 7.9025C9.105 7.74687 9.02375 7.5375 9.02375 7.275V5.67125ZM7.33063 3.86375L7.785 5.53937H7.82875L8.26062 3.86375H8.9725L8.15812 6.31688V8.05688H7.45812V6.39563L6.625 3.86438C6.62438 3.86375 7.33063 3.86375 7.33063 3.86375ZM14.2725 15.1062C13.8188 15.5588 9.99813 15.5688 9.99813 15.5688C9.99813 15.5688 6.17688 15.5594 5.7225 15.1062C5.2675 14.6519 5.26688 12.4169 5.26688 12.4C5.26688 12.3869 5.26813 10.1475 5.7225 9.69375C6.1775 9.24063 9.99813 9.235 9.99813 9.23563C9.99813 9.23563 13.8194 9.24125 14.2725 9.69438C14.7275 10.1487 14.7331 12.3875 14.7331 12.4006C14.7331 12.4 14.7294 14.6506 14.2725 15.1062Z" fill="#B6BDC7"/>
<path d="M13.1319 11.3888C12.8844 11.3888 12.6832 11.465 12.5275 11.6188C12.3713 11.7725 12.2932 11.9707 12.2932 12.2144V13.475C12.2932 13.7463 12.3657 13.9582 12.5069 14.1125C12.6488 14.2675 12.8444 14.3438 13.0907 14.3438C13.3657 14.3438 13.5725 14.2713 13.71 14.1269C13.8494 13.98 13.9175 13.7638 13.9175 13.475V13.3313H13.35V13.4594C13.35 13.625 13.3307 13.7319 13.2944 13.78C13.2582 13.8288 13.1944 13.8525 13.1025 13.8525C13.0138 13.8525 12.9525 13.825 12.915 13.7675C12.8794 13.71 12.8607 13.6075 12.8607 13.4594V12.9313H13.9163V12.215C13.9163 11.9488 13.8488 11.7444 13.7138 11.6025C13.5794 11.46 13.3844 11.3888 13.1319 11.3888ZM13.35 12.4925H12.8619V12.2094C12.8619 12.0919 12.8807 12.0075 12.9188 11.9582C12.9575 11.9057 13.0207 11.8813 13.1088 11.8813C13.1925 11.8813 13.255 11.9057 13.2919 11.9582C13.3313 12.0075 13.3507 12.0919 13.3507 12.2094L13.35 12.4925Z" fill="#B6BDC7"/>
</g>
<defs>
<clipPath id="clip0_5503_155">
<rect width="20" height="20" fill="white"/>
</clipPath>
</defs>
</svg>
