<svg width="12" height="13" viewBox="0 0 12 13" fill="none" xmlns="http://www.w3.org/2000/svg">
<path d="M3 6C3 4.586 3 3.8785 3.4395 3.4395C3.8785 3 4.586 3 6 3H7.5C8.914 3 9.6215 3 10.0605 3.4395C10.5 3.8785 10.5 4.586 10.5 6V8.5C10.5 9.914 10.5 10.6215 10.0605 11.0605C9.6215 11.5 8.914 11.5 7.5 11.5H6C4.586 11.5 3.8785 11.5 3.4395 11.0605C3 10.6215 3 9.914 3 8.5V6Z" stroke="#F0F0F2" stroke-width="0.6"/>
<path d="M3 10C2.60218 10 2.22064 9.84196 1.93934 9.56066C1.65804 9.27936 1.5 8.89782 1.5 8.5V5.5C1.5 3.6145 1.5 2.6715 2.086 2.086C2.6715 1.5 3.6145 1.5 5.5 1.5H7.5C7.89782 1.5 8.27936 1.65804 8.56066 1.93934C8.84196 2.22064 9 2.60218 9 3" stroke="#F0F0F2" stroke-width="0.6"/>
</svg>
