<svg width="20" height="20" viewBox="0 0 20 20" fill="none" xmlns="http://www.w3.org/2000/svg">
<g clip-path="url(#clip0_5556_288)">
<path d="M10 0C4.47734 0 0 4.47734 0 10C0 15.5227 4.47734 20 10 20C15.5227 20 20 15.5227 20 10C20 4.47734 15.5227 0 10 0Z" fill="#B6BDC7"/>
<path d="M11.094 9.09507L15.3749 4.1189H14.3605L10.6434 8.43965L7.67456 4.1189H4.25037L8.7398 10.6526L4.25037 15.8709H5.26486L9.1902 11.3081L12.3255 15.8709H15.7497L11.0938 9.09507H11.094ZM5.63038 4.8826H7.18857L14.3609 15.1419H12.8027L5.63038 4.8826Z" fill="#0E111A"/>
</g>
<defs>
<clipPath id="clip0_5556_288">
<rect width="20" height="20" fill="white"/>
</clipPath>
</defs>
</svg>
