<svg width="20" height="20" viewBox="0 0 20 20" fill="none" xmlns="http://www.w3.org/2000/svg">
<path opacity="0.5" d="M14.74 18.12C14.365 18.12 14.0007 17.9947 13.705 17.7642L10.3467 15.1625L8.09501 17.6483C7.9959 17.7576 7.86957 17.8386 7.72892 17.883C7.58827 17.9275 7.43834 17.9338 7.29445 17.9013C7.15056 17.8689 7.01786 17.7988 6.90991 17.6983C6.80196 17.5978 6.72262 17.4704 6.68001 17.3292L4.99667 11.7608L1.97501 10.7108C1.64873 10.5973 1.36476 10.3871 1.16084 10.1082C0.956912 9.82932 0.842699 9.49499 0.833383 9.14964C0.824066 8.80429 0.920086 8.46428 1.10868 8.17482C1.29727 7.88536 1.5695 7.66016 1.88917 7.52916L16.8225 1.5C17.1074 1.38413 17.4184 1.34765 17.7224 1.39444C18.0264 1.44124 18.3121 1.56956 18.549 1.76576C18.7859 1.96195 18.9651 2.21869 19.0677 2.50865C19.1703 2.79862 19.1924 3.11097 19.1317 3.4125L16.4125 16.7583C16.332 17.1427 16.1218 17.4877 15.8171 17.7355C15.5125 17.9832 15.1319 18.1187 14.7392 18.1192L14.74 18.12Z" fill="#F0F0F2"/>
<path d="M7.47748 17.9217C7.29866 17.9217 7.12459 17.8641 6.98098 17.7576C6.83737 17.6511 6.73184 17.5011 6.67998 17.33L4.87331 11.3633C4.81699 11.1775 4.8274 10.9779 4.90273 10.7989C4.97805 10.62 5.11356 10.473 5.28581 10.3833L14.0916 5.79834C14.2682 5.70588 14.4721 5.67976 14.6663 5.72474C14.8604 5.76972 15.0321 5.8828 15.15 6.04349C15.268 6.20417 15.3244 6.4018 15.3091 6.60053C15.2938 6.79927 15.2078 6.98594 15.0666 7.12668L9.16331 13.0292L8.29331 17.2558C8.25609 17.4373 8.15943 17.6013 8.01863 17.7217C7.87782 17.8421 7.70089 17.9122 7.51581 17.9208L7.47748 17.9217Z" fill="#F0F0F2"/>
</svg>
