<svg width="16" height="16" viewBox="0 0 16 16" fill="none" xmlns="http://www.w3.org/2000/svg">
<g clip-path="url(#clip0_5623_40)">
<g clip-path="url(#clip1_5623_40)">
<g clip-path="url(#clip2_5623_40)">
<path d="M8 16C12.4334 16 16 12.4334 16 8C16 3.56664 12.4334 0 8 0C3.56664 0 0 3.56664 0 8C0 12.4334 3.56664 16 8 16Z" fill="#2775CA"/>
<path d="M10.2 9.26665C10.2 8.10001 9.50004 7.70001 8.10004 7.53337C7.10004 7.40001 6.90004 7.13337 6.90004 6.66665C6.90004 6.19993 7.2334 5.90001 7.90004 5.90001C8.50004 5.90001 8.8334 6.10001 9.00004 6.60001C9.0334 6.70001 9.1334 6.76665 9.2334 6.76665H9.76668C9.90004 6.76665 10 6.66665 10 6.53337V6.50001C9.86668 5.76665 9.26668 5.20001 8.50004 5.13337V4.33337C8.50004 4.20001 8.40004 4.10001 8.2334 4.06665H7.7334C7.60004 4.06665 7.50004 4.16665 7.46668 4.33337V5.10001C6.46668 5.23337 5.8334 5.90001 5.8334 6.73337C5.8334 7.83337 6.50004 8.26665 7.90004 8.43337C8.8334 8.60001 9.1334 8.80001 9.1334 9.33337C9.1334 9.86673 8.66668 10.2334 8.0334 10.2334C7.16668 10.2334 6.86668 9.86665 6.76668 9.36665C6.7334 9.23337 6.6334 9.16665 6.5334 9.16665H5.96668C5.8334 9.16665 5.7334 9.26665 5.7334 9.40001V9.43337C5.86668 10.2667 6.40004 10.8667 7.50004 11.0334V11.8334C7.50004 11.9667 7.60004 12.0667 7.76668 12.1H8.26668C8.40004 12.1 8.50004 12 8.5334 11.8334V11.0334C9.5334 10.8667 10.2 10.1667 10.2 9.26665Z" fill="white"/>
<path d="M6.30004 12.7665C3.70004 11.8333 2.36668 8.93325 3.3334 6.36653C3.8334 4.96653 4.9334 3.89989 6.30004 3.39989C6.4334 3.33325 6.50004 3.23325 6.50004 3.06653V2.59989C6.50004 2.46653 6.4334 2.36653 6.30004 2.33325C6.26668 2.33325 6.20004 2.33325 6.16668 2.36653C3.00004 3.36653 1.26668 6.73325 2.26668 9.89989C2.86668 11.7665 4.30004 13.1999 6.16668 13.7999C6.30004 13.8665 6.4334 13.7999 6.46668 13.6665C6.50004 13.6333 6.50004 13.5999 6.50004 13.5333V13.0665C6.50004 12.9665 6.40004 12.8333 6.30004 12.7665ZM9.8334 2.36653C9.70004 2.29989 9.56668 2.36653 9.5334 2.49989C9.50004 2.53325 9.50004 2.56653 9.50004 2.63325V3.09989C9.50004 3.23325 9.60004 3.36653 9.70004 3.43325C12.3 4.36653 13.6334 7.26653 12.6667 9.83325C12.1667 11.2333 11.0667 12.2999 9.70004 12.7999C9.56668 12.8665 9.50004 12.9665 9.50004 13.1333V13.5999C9.50004 13.7333 9.56668 13.8333 9.70004 13.8665C9.7334 13.8665 9.80004 13.8665 9.8334 13.8333C13 12.8333 14.7334 9.46653 13.7334 6.29989C13.1334 4.39989 11.6667 2.96653 9.8334 2.36653Z" fill="white"/>
</g>
</g>
</g>
<defs>
<clipPath id="clip0_5623_40">
<rect width="16" height="16" fill="white"/>
</clipPath>
<clipPath id="clip1_5623_40">
<rect width="16" height="16" fill="white"/>
</clipPath>
<clipPath id="clip2_5623_40">
<rect width="16" height="16" fill="white"/>
</clipPath>
</defs>
</svg>
