<svg width="15" height="15" viewBox="0 0 15 15" fill="none" xmlns="http://www.w3.org/2000/svg">
<g clip-path="url(#clip0_5309_5647)">
<path opacity="0.6" d="M2.03034 0.563477H2.13483C2.54026 0.578802 2.89832 0.711995 3.23743 0.905932C6.40954 2.72177 9.5352 4.5117 12.6144 6.27572C13.0268 6.51201 13.4401 6.8684 13.5872 7.33791C13.8313 8.11645 13.2536 8.74981 12.6286 9.10787C9.52768 10.8862 6.38725 12.6855 3.20734 14.5058C2.88188 14.6919 2.51574 14.8165 2.13121 14.8301H2.02811C1.98018 14.8196 1.9317 14.8102 1.88266 14.802C1.69206 14.7706 1.53008 14.7074 1.3967 14.6125C0.911855 14.2676 0.748847 13.6506 0.748568 13.0858C0.746896 9.50188 0.746896 5.9184 0.748568 2.33539C0.748754 2.1682 0.764823 1.9933 0.796774 1.8107C0.827797 1.63311 0.882969 1.4635 0.96229 1.30189C1.18019 0.857727 1.53621 0.611589 2.03034 0.563477Z" fill="#FBFFFC"/>
</g>
<defs>
<clipPath id="clip0_5309_5647">
<rect width="14.2667" height="14.2667" fill="white" transform="translate(0.0637207 0.563477)"/>
</clipPath>
</defs>
</svg>
