<svg id="Layer_1" data-name="Layer 1" xmlns="http://www.w3.org/2000/svg" version="1.1" viewBox="0 0 233.21 224.25">
  <defs>
    <style>
      .cls-1 {
        fill: #e0bc85; /* Changed color */
        stroke-width: 0px;
      }
    </style>
  </defs>
  <path class="cls-1" d="M115.72,141.92c-5.13,0-10.27.02-15.4-.01-4.14-.03-6.66-2.53-6.81-6.68-.07-1.91,0-3.84-.15-5.75-.26-3.53-1.93-6.48-4.06-9.19-5.27-6.73-7.84-14.33-7.69-22.9.31-16.85,14.67-31.98,31.48-33.08,20.78-1.35,37.47,14.39,37.13,35.12-.11,6.99-2.48,13.31-6.45,19.03-.99,1.42-2.05,2.79-3,4.24-1.67,2.54-2.59,5.31-2.52,8.39.04,1.42.05,2.85,0,4.27-.16,4.03-2.72,6.53-6.76,6.55-5.26.03-10.51,0-15.77,0ZM121.5,135.96c2.18,0,3.96-.04,5.75.01,1.13.04,1.51-.43,1.5-1.53-.01-2.22.01-4.45.16-6.67.38-5.71,3.48-10.13,6.79-14.54,7.06-9.42,6.72-21.01-.64-30.16-6.48-8.06-17.61-11.27-27.28-7.87-9.94,3.49-16.56,12.73-16.63,23.19-.04,6.41,2.26,11.96,6.33,16.81,2.99,3.56,4.9,7.57,5.33,12.21.2,2.15.19,4.32.28,6.48.03.65.06,1.3.1,1.93h6.87c.07-.49.16-.85.16-1.2,0-6.49.1-12.99-.12-19.48-.07-1.95-.77-4-1.66-5.77-2.22-4.41-4.8-8.65-7.08-13.04-1.33-2.56-.4-5.56,1.88-7.04,2.18-1.42,4.23-.99,6.36,1.35,1.36,1.49,1.85,1.48,3.1-.27,1.1-1.54,2.54-2.29,4.31-1.61.97.38,1.81,1.25,2.53,2.05.97,1.08,1.78,1.23,2.71.04.27-.34.57-.65.88-.95,2.21-2.14,5.3-1.85,7.02.7,1.2,1.78,1.4,3.68.36,5.61-2.33,4.29-4.82,8.5-6.99,12.87-.96,1.93-1.68,4.15-1.82,6.28-.3,4.62-.17,9.27-.2,13.91-.02,2.15,0,4.3,0,6.68ZM118.2,115.15c0-1.01.08-1.93-.02-2.82-.26-2.33.45-4.31,1.64-6.29,2.11-3.49,4.03-7.09,6.01-10.66.31-.56.52-1.16.77-1.75-.08-.16-.16-.31-.24-.47-3.48,3.84-6.99,5.07-10.39.18-1.57,1.74-3.04,3.61-5.25,3.06-1.85-.46-3.48-1.8-5.34-2.83.29.67.54,1.4.9,2.07,2.04,3.74,4.07,7.49,6.18,11.2.88,1.54,1.49,3.07,1.29,4.9-.13,1.13-.02,2.28-.02,3.41h4.46Z"/>
  <path class="cls-1" d="M173.08,88.67c.6.34,1.22.61,1.75,1.01,1.67,1.28,3.26,2.67,4.98,3.86.52.36,1.46.44,2.08.25,1.71-.51,3.32-1.34,5.03-1.84,1.24-.36,1.69-1,1.67-2.24-.02-1.73.07-3.46.17-5.19.11-1.95.82-2.61,2.79-2.68,1.42-.05,2.84-.04,4.27-.05,1.76-.02,2.61.92,2.68,2.62.08,1.73.14,3.46.18,5.19.02,1.13.49,1.74,1.64,2.09,1.7.52,3.3,1.4,5,1.93.68.21,1.7.15,2.26-.23,1.73-1.18,3.34-2.55,4.96-3.88,1.23-1.01,2.34-.94,3.42.22.72.77,1.47,1.5,2.19,2.26,2.43,2.56,2.69,3,.05,5.43-3.02,2.78-3.83,5.19-1.74,9.08,1.95,3.63,1.48,3.88,5.62,4.04.62.02,1.24.04,1.85.1,2.12.2,2.51.63,2.54,2.81.02,1.42,0,2.84.03,4.27.03,1.76-.81,2.61-2.57,2.67-1.42.05-2.84.27-4.26.26-1.54-.01-2.3.59-2.68,2.13-.41,1.66-1.05,3.31-1.85,4.83-.64,1.22-.42,2.02.43,2.95,1.25,1.37,2.4,2.83,3.6,4.24.97,1.14.93,2.21-.12,3.27-1.13,1.14-2.25,2.3-3.38,3.44-.94.96-1.9.97-2.95.13-1.64-1.32-3.35-2.55-4.95-3.9-.84-.71-1.5-.74-2.48-.26-1.6.79-3.29,1.41-4.98,1.99-1.16.4-1.71,1.09-1.7,2.31,0,1.73-.04,3.46-.11,5.19-.07,1.52-.81,2.42-2.43,2.41-1.55,0-3.09,0-4.64.05-1.81.06-2.59-.87-2.64-2.59-.05-1.61-.18-3.21-.16-4.82.02-1.38-.47-2.16-1.85-2.55-1.42-.41-2.89-.86-4.11-1.65-1.57-1-2.65-.64-3.9.49-1.33,1.19-2.86,2.16-4.27,3.27-1.06.83-2.02.78-2.94-.19-1.06-1.12-2.14-2.23-3.21-3.34-1.16-1.19-1.11-2.38-.03-3.6,1.23-1.39,2.52-2.74,3.58-4.25.39-.55.45-1.57.24-2.24-.61-1.93-1.35-3.84-2.22-5.67-.3-.63-1.06-1.35-1.7-1.46-1.76-.31-3.57-.32-5.35-.44-2.05-.14-2.57-.67-2.62-2.76-.03-1.42.06-2.85-.03-4.27-.12-1.85.78-2.59,2.5-2.66,1.73-.08,3.45-.23,5.18-.31,1.25-.06,1.93-.5,2.27-1.88.45-1.84,1.25-3.62,2.1-5.32.5-1,.44-1.66-.29-2.46-1.29-1.41-2.5-2.91-3.75-4.35-.98-1.12-.96-2.24.04-3.31,1.18-1.26,2.4-2.49,3.64-3.7.29-.28.73-.42,1.19-.68ZM193.89,99.12c-9.23-.1-16.64,7.07-16.76,16.22-.12,9.32,7.18,16.79,16.54,16.91,9.14.12,16.4-7.1,16.53-16.43.13-9.1-7.19-16.59-16.31-16.7Z"/>
  <path class="cls-1" d="M34.42,133.67c-1.55,0-3.1-.08-4.64.02-1.62.1-2.4-.64-2.66-2.16-.34-2.01-.69-4.02-1.09-6.02-.54-2.69-2.36-3.84-5-2.99-1.76.56-3.47,1.31-5.13,2.13-1.53.76-2.64.36-3.49-.95-1.81-2.8-3.57-5.64-5.35-8.47-.75-1.19-.28-2.13.66-2.93,1.55-1.33,3.16-2.59,4.69-3.93,1.98-1.74,2-4.69.05-6.42-1.48-1.31-2.99-2.59-4.53-3.84-1.08-.87-1.39-1.86-.69-3.08,1.67-2.89,3.32-5.79,5.04-8.65.85-1.41,2.07-1.79,3.65-1.07,1.57.72,3.18,1.38,4.82,1.91,2.92.94,4.8-.2,5.34-3.16.35-1.95.65-3.9.97-5.86.22-1.37.94-2.02,2.39-2,3.52.04,7.05-.03,10.58-.06,1.22-.01,1.98.52,2.2,1.77.38,2.19.78,4.38,1.21,6.56.48,2.4,2.45,3.63,4.8,2.87,1.76-.56,3.47-1.3,5.17-2.05,1.64-.73,2.9-.38,3.8,1.14,1.69,2.87,3.33,5.78,5.01,8.66.63,1.09.41,2.02-.5,2.81-1.5,1.29-3.02,2.56-4.53,3.83-1.95,1.65-2.19,4.54-.39,6.36,1.3,1.31,2.81,2.42,4.19,3.65,2.03,1.81,2.1,2.32.72,4.56-1.39,2.27-2.79,4.52-4.21,6.77-1.46,2.31-2.08,2.5-4.55,1.49-1.54-.64-3.07-1.32-4.63-1.9-2.67-.99-4.5.05-5,2.82-.37,2.01-.76,4.01-1.03,6.03-.2,1.54-1.07,2.13-2.5,2.13-1.79,0-3.59,0-5.38,0,0,0,0,0,0,.01ZM46.81,104.64c-.01-6.74-5.45-12.22-12.11-12.21-6.72.01-12.07,5.29-12.13,11.96-.06,6.98,5.35,12.53,12.21,12.53,6.7,0,12.04-5.46,12.02-12.27Z"/>
  <path class="cls-1" d="M150.73,71.71c.79-2.29,1.55-4.25,2.12-6.27.18-.64.08-1.53-.23-2.13-1-1.91-2.11-3.77-3.29-5.58-.34-.53-1.01-1.01-1.62-1.17-1.49-.39-3.03-.57-4.56-.83-1.25-.22-2.03-.87-2.02-2.22.02-3.21-.05-6.43.14-9.64.04-.66.94-1.56,1.64-1.81,1.49-.55,3.15-.65,4.67-1.13.72-.23,1.45-.81,1.9-1.44.94-1.3,1.52-2.88,2.58-4.05,1.3-1.44,1.33-2.74.47-4.32-.38-.7-.57-1.5-.88-2.24-1.18-2.9-1.21-2.98,1.36-4.64,2.18-1.4,4.46-2.64,6.7-3.96,1-.59,1.86-.46,2.66.39,1.36,1.44,2.67,2.93,4.13,4.26.54.49,1.45.75,2.2.8,1.84.11,3.69.11,5.52-.02.81-.06,1.77-.33,2.36-.85,1.29-1.14,2.41-2.48,3.55-3.79.86-.99,1.82-1.25,2.95-.56,2.59,1.57,5.21,3.09,7.69,4.82.54.38.99,1.81.7,2.3-2.43,4.1-1.73,7.61,1.25,11.18.98,1.17,1.76,1.95,3.24,2.23,6.56,1.27,5.74.58,5.82,6.97.02,1.67-.11,3.34-.03,5.01.08,1.79-.77,2.59-2.46,2.81-1.47.18-2.95.39-4.38.75-.6.16-1.26.65-1.6,1.17-.71,1.08-1.01,2.5-1.88,3.38-1.96,2-1.64,3.93-.81,6.35,1.77,5.17,2.42,4.31-2.71,7.44-1.74,1.06-3.6,1.92-5.38,2.91-.99.55-1.76.32-2.45-.49-1.19-1.42-2.31-2.92-3.62-4.22-.55-.54-1.52-.85-2.32-.91-1.89-.13-3.81-.1-5.71,0-.65.03-1.45.29-1.87.74-1.37,1.43-2.6,2.98-3.86,4.5-.78.94-1.66,1.21-2.76.56-2.6-1.54-5.24-3.03-7.8-4.63-.6-.37-.96-1.13-1.39-1.66ZM186.46,48.59c-.12-8.05-7.05-14.72-15.19-14.65-8.47.08-15,6.77-14.86,15.23.13,8.33,6.9,14.92,15.18,14.77,8.34-.15,15-7.02,14.87-15.36Z"/>
  <path class="cls-1" d="M115.37,6.44c9.59,0,19.58,1.55,29.34,4.54,3.31,1.02,3.8,2.06,2.63,5.32-.08.23-.15.47-.24.7-1.67,4.22-2.09,4.33-6.48,3.01-14.88-4.46-29.93-4.9-45.11-1.73-22.44,4.68-41.25,15.65-56.18,33.02-3.6,4.19-6.35,9.1-9.54,13.65-.35.5-1.03.77-1.56,1.14-.44.31-.93.56-1.32.93-1.89,1.78-3.72,3.62-5.63,5.39-.63.58-1.36,1.26-2.13,1.41-.87.17-2.07.07-2.71-.44-.54-.44-.89-1.77-.63-2.44.93-2.41,2.03-4.77,3.28-7.04,12.53-22.69,30.72-39.15,54.67-49.09,13.09-5.43,26.78-8.28,41.62-8.36Z"/>
  <path class="cls-1" d="M113.41,217.81c-13.57-.53-26.66-3.15-39.3-8.02-3.14-1.21-3.38-1.8-2.25-5.01,1.74-4.94,2.12-5.09,7.09-3.35,14.1,4.94,28.58,7.56,43.55,6.2,20.77-1.88,39.55-8.99,55.91-22.1,3.09-2.47,6.05-5.09,9.03-7.69,2.13-1.86,3.55-1.93,5.7-.11.42.36.83.74,1.23,1.13,2.01,1.94,2.04,3.16.07,5.15-15.35,15.4-33.47,25.86-54.77,30.58-4.4.97-8.87,1.7-13.34,2.25-4.29.53-8.62.67-12.93.98Z"/>
  <path class="cls-1" d="M153.6,180.62c-6.22,4.96-12.68,8.94-19.85,11.66-16.74,6.37-33.77,6.94-51.03,2.42-.36-.09-.82-.11-1.04-.35-.58-.62-1.04-1.34-1.55-2.03.74-.42,1.47-1.21,2.21-1.21,2.34,0,4.69.36,7.03.44,19.01.6,36.9-3.12,52.86-14,2.33-1.59,4.44-3.48,6.86-5.4-2.5-1.89-4.71-3.55-6.91-5.21-.64-.48-1.36-.89-1.93-1.44-.54-.52-.94-1.19-1.41-1.79.66-.47,1.26-1.18,2-1.38,4.72-1.26,9.47-2.39,14.21-3.58,7.08-1.78,14.14-3.58,21.23-5.31.7-.17,1.5.08,2.25.13-.1.74,0,1.58-.32,2.2-5.74,11.02-11.53,22.02-17.31,33.02-.26.49-.51,1-.85,1.43-1.01,1.28-2.16,1.14-2.79-.38-.8-1.94-1.48-3.94-2.24-5.9-.4-1.03-.87-2.03-1.43-3.33Z"/>
  <path class="cls-1" d="M111.78,31.76c0-1.86-.05-3.58.01-5.3.1-2.7,2.42-3.98,4.67-2.46,5.94,4.01,11.84,8.08,17.69,12.22,2.25,1.59,2.11,3.49-.22,4.98-5.82,3.75-11.64,7.49-17.49,11.18-2.66,1.68-4.59.58-4.66-2.59-.03-1.66,0-3.32,0-5.13-3.67-.37-7.11.24-10.53.98-5.76,1.24-11.27,3.23-16.55,5.87-2.76,1.38-3.62,1.05-4.96-1.67-.71-1.44-1.47-2.86-2.14-4.32-1.11-2.44-.73-3.38,1.67-4.56,9.91-4.84,20.24-8.23,31.32-9,.3-.02.6-.11,1.18-.22Z"/>
  <path class="cls-1" d="M57.38,177.39c-.43,0-.87,0-1.3,0-2.43-.04-2.92-.38-2.74-2.83.17-2.4-.14-4.25-2.86-4.81-.06-.01-.12-.05-.16-.09-2.14-1.91-4.31-2.7-6.93-.7-1.02.78-2.13.24-2.86-.82-.14-.2-.3-.4-.42-.61-2.86-4.85-2.64-4.12,1.21-6.73,1.05-.71,1.52-1.55,1.19-2.81-.11-.41-.19-.9-.07-1.29.9-2.93-.65-4.59-2.95-5.9-1.31-.74-1.63-1.75-.87-3.09.28-.48.47-1.01.72-1.5,1.74-3.29,2.28-3.49,5.59-1.68,1.12.61,1.9.64,2.96-.21,1.19-.95,2.6-1.67,4.01-2.28,1.08-.46,1.46-1.03,1.46-2.21-.04-4.94,0-4.94,4.98-4.97,2.95-.02,3.16.19,3.25,3.14.02.56.03,1.12,0,1.67-.09,1.26.3,2.15,1.63,2.51.53.14,1.07.39,1.49.73,2.27,1.85,4.53,2.74,7.22.65.38-.3,1.86.15,2.28.69.98,1.24,1.76,2.7,2.35,4.17.2.51-.2,1.73-.66,1.98-2.73,1.46-3.64,3.36-3.48,6.63.11,2.34.74,3.55,2.48,4.72,2.31,1.55,2.26,1.63.89,3.93-.1.16-.19.32-.29.48-2.3,3.76-2.46,3.78-6.35,1.73-.5-.26-1.38-.13-1.94.13-1.45.68-2.87,1.45-4.19,2.36-.59.41-.94,1.2-1.31,1.87-.13.23-.02.61-.02.92,0,4.12-.09,4.21-4.28,4.23ZM66.51,156.12c-.02-5.01-4.08-9.04-9.08-9.02-4.82.02-8.94,4.19-8.91,9.04.03,5.16,4.11,9.27,9.13,9.21,5.04-.07,8.88-4.06,8.85-9.23Z"/>
  <path class="cls-1" d="M15.93,134.09c2.83,0,5.11,1.76,5.76,4.46,2.44,10.07,6.67,19.34,12.42,27.94.31.46.58.95.91,1.39,1.01,1.31.71,2.38-.54,3.32-1.09.82-2.15,1.67-3.22,2.5-1.95,1.5-2.85,1.38-4.2-.7-5.69-8.73-10.48-17.9-13.5-27.92-.62-2.07-1.26-4.14-1.67-6.26-.53-2.72,1.26-4.72,4.03-4.73Z"/>
  <path class="cls-1" d="M40.14,176.71c.62.32,1.5.63,2.21,1.16,7.57,5.76,15.11,11.56,22.66,17.33,1.8,1.38,2.05,2.23,1.08,4.27-2.52,5.31-3.29,5.48-8.2,2.27-6.95-4.53-13.62-9.43-19.66-15.14-.63-.59-1.28-1.17-1.89-1.78-1.16-1.17-2.41-2.49-1.45-4.21,1.06-1.9,2.61-3.44,5.25-3.9Z"/>
  <path class="cls-1" d="M213.16,16.47c.43.36,1.17.93,1.83,1.57.19.18.24.57.26.87.37,5.29,3.04,8.26,8.45,8.67,1.43.11,2.15,1.2,2.19,2.57.04,1.39-.71,2.34-2.08,2.69-.77.2-1.57.31-2.36.44-3.02.51-4.81,2.33-5.55,5.25-.26,1.02-.45,2.05-.69,3.07-.34,1.42-1.19,2.32-2.71,2.31-1.48-.01-2.19-.96-2.48-2.31-.09-.42-.19-.84-.27-1.27-.96-5-2.49-6.47-7.5-7.18-2.21-.31-3-1.04-3.04-2.77-.04-1.45.61-2.52,2.03-2.65,5.43-.52,8.44-3.28,8.75-8.86.08-1.53,1.18-2.22,3.17-2.4Z"/>
  <path class="cls-1" d="M204.31,213.89c-.96-1.22-2.11-2.01-2.2-2.91-.57-5.44-3.44-8.21-8.9-8.46-1.36-.06-1.99-1.17-2.04-2.47-.06-1.42.66-2.35,2.05-2.7,1.08-.27,2.18-.45,3.26-.71,2.76-.65,4.36-2.43,4.93-5.17.2-.97.31-1.96.57-2.91.34-1.27,1.21-1.99,2.55-2.03,1.36-.04,2.22.65,2.55,1.95.21.84.39,1.68.54,2.53.59,3.22,2.43,5.18,5.69,5.75.79.14,1.58.3,2.36.47,1.38.3,2.2,1.08,2.15,2.57-.05,1.43-.84,2.27-2.2,2.59-.9.21-1.81.38-2.72.57-2.86.6-4.5,2.39-5.13,5.2-.24,1.08-.3,2.28-.82,3.21-.48.86-1.46,1.44-2.63,2.53Z"/>
  <path class="cls-1" d="M23.8,185.05c1.04.94,1.75,1.53,2.39,2.18.19.2.25.57.27.87.42,5.06,3.01,7.93,8.2,8.29,1.44.1,2.24,1.08,2.28,2.48.04,1.48-.78,2.43-2.25,2.74-.67.14-1.33.27-2,.39-3.3.59-5.27,2.5-5.84,5.84-.16.91-.19,1.98-.7,2.66-.6.79-1.68,1.7-2.53,1.67-.83-.03-1.78-1.05-2.38-1.85-.43-.59-.38-1.53-.53-2.32-.62-3.36-2.47-5.24-5.8-5.91-.67-.13-1.34-.24-2.01-.37-1.34-.25-2.34-.88-2.39-2.38-.06-1.61.8-2.52,2.35-2.84.85-.18,1.69-.36,2.53-.57,3.09-.78,4.89-2.73,5.37-5.9.12-.79.13-1.7.53-2.33.57-.89,1.47-1.58,2.5-2.63Z"/>
  <path class="cls-1" d="M20.56,41c-.4-.34-1.17-.81-1.69-1.48-.35-.44-.36-1.16-.48-1.76-1.05-5.11-2.34-6.4-7.46-7.24-1.66-.27-2.84-.95-2.83-2.79,0-1.71,1.04-2.46,2.66-2.76,2.44-.45,5.01-.95,6.3-3.37.76-1.43,1.04-3.13,1.43-4.73.33-1.37.9-2.67,2.43-2.53.91.08,1.84.91,2.57,1.61.37.35.32,1.16.42,1.77.77,4.67,2.25,6.16,6.99,7.01,2.29.41,3.3,1.23,3.05,2.94-.13.88-.96,1.68-1.56,2.45-.19.24-.68.29-1.04.32-4.75.39-7.21,3.03-7.64,7.71-.15,1.59-.94,2.65-3.14,2.86Z"/>
  <path class="cls-1" d="M201.86,174.34c-1.27-.87-2.26-1.45-3.15-2.17-3.73-3-3.62-2.96-1.1-7.09,2.02-3.32,3.89-6.75,5.63-10.22,1.28-2.55,3.47-4.02,5.83-5.15.83-.4,2.42.13,3.33.74,1.31.87,1.69,2.42,1.28,3.99-.25.95-.61,1.89-1.08,2.76-2.65,4.89-5.3,9.77-8.07,14.59-.56.97-1.67,1.63-2.67,2.56Z"/>
  <path class="cls-1" d="M115.71,158.99c-5.43,0-10.87,0-16.3,0-2.1,0-3.18-.88-3.16-2.51.02-1.51,1.06-2.44,3.09-2.45,10.99-.03,21.99,0,32.98,0,1.41,0,2.57.51,3.03,1.96.5,1.57-.78,2.98-2.77,2.99-5.62.03-11.24.01-16.86.01h0Z"/>
  <path class="cls-1" d="M115.79,150.46c-5.43,0-10.87,0-16.3,0-2.09,0-3.22-.89-3.26-2.46-.04-1.49,1.17-2.45,3.27-2.46,10.87-.05,21.73-.08,32.6-.11,2.11,0,3.34,1.01,3.31,2.65-.03,1.56-1.09,2.36-3.32,2.37-5.43.02-10.87,0-16.3,0h0Z"/>
  <path class="cls-1" d="M216.93,76.16c-.2.42-.32,1.27-.79,1.57-1.7,1.07-3.46,2.17-5.34,2.79-.64.21-2.13-.75-2.56-1.54-2.23-4.05-4.25-8.22-6.33-12.35-.7-1.39-.48-2.72.69-3.7,1.03-.86,2.2-1.6,3.39-2.22,1.4-.73,2.9-.37,3.62.9,2.48,4.4,4.76,8.92,7.1,13.4.14.26.13.6.24,1.16Z"/>
  <path class="cls-1" d="M47.95,59.08c.94-.99,1.35-1.68,1.96-2,.69-.36,1.55-.37,2.33-.55,1.61-.36,2.58-1.37,2.94-2.97.05-.24.05-.49.11-.73.33-1.27.26-2.94,2.15-2.96,1.88-.02,1.93,1.58,2.19,2.9.53,2.61,1.32,3.4,3.98,3.92.42.08.96.04,1.25.28.59.51,1.48,1.2,1.45,1.77-.05.7-.82,1.47-1.46,1.98-.43.34-1.17.32-1.78.43-2.02.37-3.12,1.59-3.45,3.59-.11.67-.1,1.46-.47,1.95-.43.56-1.2,1.15-1.85,1.17-.51.02-1.1-.76-1.56-1.28-.22-.25-.23-.7-.27-1.06-.3-2.78-1.78-4.29-4.61-4.68-.89-.12-1.68-.98-2.92-1.76Z"/>
  <path class="cls-1" d="M106.92,162.89h17.87c-.04,3.19-1.25,5.62-3.87,7.22-3.39,2.07-6.87,1.93-10.18-.13-2.51-1.57-3.71-3.99-3.82-7.09Z"/>
  <path class="cls-1" d="M72.52,78.77c-.68-.91-1.35-1.41-1.43-1.99-.33-2.28-1.41-3.56-3.83-3.72-.54-.04-1.03-.83-1.55-1.28.51-.51.98-1.39,1.55-1.47,2.31-.31,3.51-1.45,3.83-3.78.08-.6,1.05-1.58,1.45-1.51.65.12,1.55.89,1.68,1.52.45,2.25,1.56,3.48,3.93,3.7.54.05.99,1.01,1.48,1.55-.56.47-1.08,1.27-1.69,1.34-2.11.26-3.4,1.12-3.71,3.39-.09.67-.92,1.25-1.71,2.25Z"/>
  <path class="cls-1" d="M66.69,45.51c-1.6-.03-2.71-1.25-2.66-2.92.04-1.61,1.25-2.8,2.83-2.79,1.6,0,2.93,1.41,2.84,3.01-.08,1.44-1.51,2.73-3.01,2.7Z"/>
  <path class="cls-1" d="M45.36,64.31c1.68-.02,2.79,1.07,2.79,2.74,0,1.54-1.25,2.82-2.78,2.87-1.63.05-2.77-1.1-2.77-2.78,0-1.62,1.16-2.8,2.77-2.83Z"/>
</svg>